<?xml version="1.0" standalone="no"?>
<!DOCTYPE svg PUBLIC "-//W3C//DTD SVG 20010904//EN"
 "http://www.w3.org/TR/2001/REC-SVG-20010904/DTD/svg10.dtd">
<svg version="1.0" xmlns="http://www.w3.org/2000/svg"
 width="1280.000000pt" height="1280.000000pt" viewBox="0 0 1280.000000 1280.000000"
 preserveAspectRatio="xMidYMid meet">
<g transform="translate(0.000000,1280.000000) scale(0.100000,-0.100000)"
fill="#000000" stroke="none">
<path d="M680 12762 c0 -21 7 -64 15 -97 l16 -59 -73 -73 c-40 -40 -80 -75
-89 -78 -9 -3 -32 1 -51 9 -96 41 -226 28 -349 -35 l-62 -31 -36 36 c-20 20
-40 36 -44 36 -4 0 -7 -187 -7 -415 0 -228 3 -415 7 -415 4 0 19 12 34 26 26
25 29 25 66 13 93 -32 252 -5 347 57 36 24 42 25 62 13 12 -8 123 -106 245
-219 122 -113 284 -261 359 -330 75 -69 235 -215 354 -325 119 -110 288 -264
374 -343 214 -194 214 -194 200 -233 -13 -37 -4 -149 16 -207 8 -23 31 -66 50
-97 20 -30 36 -58 36 -61 0 -4 -31 -45 -68 -93 -137 -173 -273 -364 -348 -487
-10 -16 -13 -16 -77 1 -87 23 -210 17 -285 -15 -28 -12 -59 -19 -69 -16 -17 7
-96 51 -845 475 -235 133 -434 244 -443 247 -13 5 -15 -8 -15 -87 l1 -94 387
-211 c213 -117 491 -269 618 -339 l231 -127 5 -67 c6 -86 45 -166 121 -247 31
-34 57 -67 57 -74 0 -7 -26 -72 -59 -144 -145 -325 -243 -607 -321 -926 -32
-130 -85 -397 -96 -480 -4 -30 -11 -60 -16 -67 -5 -6 -39 -16 -75 -23 -117
-20 -232 -89 -269 -163 l-16 -29 -91 6 c-165 12 -166 12 -187 62 -27 62 -93
129 -187 191 -46 29 -87 53 -93 53 -6 0 -10 -110 -10 -315 0 -366 -11 -340
118 -275 74 37 113 70 167 143 l20 27 123 -12 123 -11 25 -48 c48 -96 114
-150 238 -195 l61 -22 6 -283 c13 -577 107 -1123 281 -1638 l42 -123 -29 -21
c-107 -77 -171 -169 -190 -271 l-11 -59 -104 -43 c-115 -47 -141 -52 -161 -28
-33 40 -169 84 -262 84 -30 0 -75 3 -100 6 -45 6 -47 8 -66 58 -66 176 -163
526 -220 790 -21 97 -42 171 -49 174 -9 3 -12 -53 -12 -250 0 -140 4 -258 9
-264 5 -5 21 -54 36 -109 15 -55 52 -175 82 -267 l55 -168 -42 -47 c-62 -70
-81 -122 -88 -231 -4 -87 -6 -93 -28 -98 -23 -6 -24 -10 -24 -95 l0 -89 38 16
c71 31 78 30 133 -21 65 -61 126 -87 219 -94 l75 -6 88 -170 c128 -245 357
-618 484 -784 40 -53 40 -62 8 -125 -33 -65 -35 -189 -5 -268 l20 -53 -23 -21
c-62 -59 -828 -674 -839 -674 -8 0 -33 14 -56 31 -24 17 -65 40 -92 50 l-50
19 0 -410 0 -410 43 0 c24 0 67 7 97 16 l53 16 74 -73 c40 -41 75 -81 78 -90
3 -9 -1 -32 -9 -51 -41 -96 -28 -226 34 -348 l30 -60 -35 -39 c-19 -21 -35
-41 -35 -45 0 -3 187 -6 415 -6 228 0 415 3 415 7 0 4 -12 19 -26 34 -25 26
-25 29 -13 66 18 53 16 167 -4 233 -9 30 -30 77 -47 103 -16 26 -30 52 -30 57
0 6 53 67 118 138 64 70 185 202 268 292 83 91 267 291 408 445 142 154 341
371 443 483 l186 202 36 -7 c100 -22 212 1 308 63 29 19 58 34 63 34 6 0 27
-15 47 -34 63 -56 290 -223 421 -309 121 -80 124 -82 117 -112 -21 -90 -24
-115 -24 -170 0 -37 8 -81 21 -115 35 -92 34 -96 -93 -320 -391 -689 -600
-1060 -605 -1074 -5 -14 6 -16 87 -16 l94 1 209 382 c115 210 267 488 338 618
l130 236 63 6 c88 7 181 52 258 125 38 37 68 57 77 54 8 -3 58 -25 110 -50
257 -120 765 -295 995 -342 22 -4 103 -21 180 -38 77 -17 177 -36 223 -42 46
-6 89 -13 97 -16 7 -3 18 -35 25 -72 20 -120 78 -222 152 -268 l40 -25 -6 -87
c-13 -174 -9 -164 -77 -197 -36 -17 -76 -46 -100 -73 -39 -44 -129 -186 -129
-203 0 -5 142 -9 315 -9 l315 0 0 22 c0 63 -125 245 -180 263 -27 9 -28 19
-17 148 l10 118 41 21 c95 49 151 114 197 231 l27 72 249 6 c621 17 1058 89
1632 271 l163 52 21 -29 c36 -52 124 -133 167 -155 24 -12 70 -27 103 -34 l60
-12 43 -105 c24 -57 43 -110 44 -118 0 -8 -12 -29 -26 -48 -43 -57 -65 -137
-75 -272 -5 -82 -13 -127 -21 -133 -21 -13 -343 -115 -488 -154 -74 -20 -220
-56 -324 -79 -105 -23 -192 -47 -194 -53 -5 -15 498 -17 514 -3 5 5 54 21 109
36 55 15 175 52 267 82 l168 55 51 -46 c62 -56 149 -86 250 -86 65 0 69 -1 75
-25 6 -24 9 -25 95 -25 l89 0 -16 37 c-31 72 -30 79 21 134 61 65 87 126 94
219 l6 75 159 83 c217 112 418 232 629 376 98 67 188 127 201 135 20 12 29 11
88 -13 85 -33 192 -36 270 -6 l53 20 21 -23 c59 -62 674 -828 674 -839 0 -8
-14 -33 -31 -56 -17 -24 -40 -65 -50 -92 l-19 -50 410 0 410 0 0 38 c0 21 -7
64 -15 97 l-16 59 73 73 c40 40 80 75 89 78 9 3 31 -1 50 -9 96 -40 225 -28
343 31 l69 35 36 -36 c20 -20 40 -36 44 -36 4 0 7 187 7 415 0 228 -3 415 -7
415 -4 0 -19 -11 -33 -25 l-27 -25 -63 16 c-98 25 -220 3 -313 -56 -26 -16
-52 -30 -58 -30 -5 0 -64 51 -132 113 -182 168 -1060 975 -1200 1103 -67 61
-145 133 -174 160 l-51 49 6 75 c10 110 -15 200 -81 294 -25 35 -29 26 104
198 53 67 141 188 194 268 54 80 101 149 106 154 4 4 39 1 77 -8 95 -21 175
-20 242 5 30 11 65 23 77 26 17 4 80 -27 235 -115 117 -66 405 -228 640 -361
235 -133 434 -244 443 -247 13 -5 15 8 15 87 l-1 94 -375 205 c-789 431 -857
469 -865 481 -4 7 -7 36 -7 65 1 73 -43 163 -120 245 l-61 65 61 134 c135 304
290 755 338 990 4 19 21 98 38 175 16 77 35 179 41 226 7 47 16 90 19 97 4 6
36 15 70 21 114 18 222 80 268 152 l25 40 102 -7 c144 -10 147 -11 182 -76 17
-31 39 -66 50 -78 24 -26 139 -110 151 -110 5 0 20 -9 34 -20 51 -40 50 -43
50 295 0 354 7 329 -78 297 -76 -29 -159 -89 -189 -137 -16 -25 -35 -46 -43
-49 -8 -3 -67 1 -130 7 l-115 12 -20 41 c-47 96 -114 152 -235 198 l-65 24 -7
277 c-10 385 -41 669 -110 995 -16 80 -34 163 -38 185 -15 71 -79 296 -128
443 l-47 144 30 21 c52 36 133 123 155 167 12 24 27 70 34 102 l12 60 105 44
c57 24 112 43 122 44 10 0 35 -14 56 -31 53 -42 116 -59 260 -69 81 -6 127
-14 133 -22 13 -20 113 -337 154 -487 20 -73 55 -219 78 -324 24 -105 48 -193
54 -195 15 -5 17 489 2 516 -5 9 -26 73 -45 142 -20 69 -57 187 -82 262 l-46
137 43 48 c63 71 82 122 88 231 4 87 6 93 28 98 23 6 24 10 24 95 l0 89 -37
-16 c-72 -31 -79 -30 -134 21 -65 61 -126 87 -219 94 l-75 6 -83 159 c-112
217 -232 418 -376 629 -67 98 -127 188 -135 201 -13 21 -12 29 13 86 36 80 39
187 7 270 l-21 55 23 21 c62 59 828 674 839 674 8 0 33 -14 56 -31 24 -17 65
-40 92 -50 l50 -19 0 410 0 410 -42 0 c-23 0 -65 -8 -95 -17 l-54 -17 -74 74
c-41 41 -77 82 -80 91 -3 9 1 32 9 51 41 96 28 226 -34 348 l-30 60 35 39 c19
21 35 41 35 45 0 3 -187 6 -415 6 -228 0 -415 -3 -415 -7 0 -4 12 -19 26 -34
25 -26 25 -29 13 -66 -18 -53 -16 -167 4 -233 9 -30 30 -77 47 -103 16 -26 30
-52 30 -57 0 -6 -53 -67 -117 -138 -65 -70 -186 -202 -269 -292 -573 -625
-928 -1011 -994 -1083 l-45 -48 -47 12 c-82 22 -217 -14 -329 -87 l-27 -17
-87 69 c-122 96 -314 234 -417 301 -49 30 -88 60 -88 65 0 6 7 38 16 72 21 79
14 206 -16 272 -11 26 -20 51 -20 57 0 6 53 106 119 222 65 115 227 402 360
637 133 235 244 434 247 443 5 13 -8 15 -87 15 l-94 -1 -211 -387 c-117 -213
-269 -491 -339 -618 l-127 -231 -66 -6 c-89 -9 -173 -50 -253 -125 l-66 -61
-64 30 c-392 186 -851 334 -1294 419 -295 56 -268 45 -281 110 -27 136 -69
212 -148 270 l-47 35 6 90 c11 162 11 164 61 185 77 34 153 118 248 278 6 9
-60 12 -313 12 -373 0 -346 11 -281 -118 37 -74 67 -109 142 -167 l26 -20 -10
-123 -11 -123 -48 -25 c-95 -48 -157 -125 -198 -246 l-18 -53 -279 -6 c-596
-14 -1083 -97 -1643 -281 l-125 -41 -15 24 c-62 95 -172 174 -271 193 l-55 11
-32 65 c-52 107 -70 168 -55 188 65 90 80 139 92 296 6 66 11 121 14 123 8 8
180 66 336 113 192 57 353 98 535 135 72 15 137 33 145 41 12 12 -23 14 -246
14 -143 0 -264 -4 -269 -9 -6 -5 -55 -21 -110 -36 -55 -15 -176 -52 -268 -82
l-168 -54 -45 41 c-65 60 -122 81 -232 88 -87 4 -93 6 -98 28 -6 23 -10 24
-95 24 l-89 0 16 -37 c31 -72 30 -79 -21 -134 -61 -65 -87 -126 -94 -219 l-6
-75 -159 -83 c-257 -133 -498 -282 -815 -501 l-43 -31 -46 27 c-65 38 -201 45
-282 14 l-55 -21 -21 23 c-59 62 -674 828 -674 839 0 8 14 33 31 56 17 24 40
65 50 92 l19 50 -410 0 -410 0 0 -38z m945 -677 c190 -229 348 -422 351 -429
3 -7 -6 -30 -20 -51 -55 -80 -72 -214 -39 -297 31 -79 69 -115 178 -168 122
-61 210 -84 286 -77 95 8 155 49 200 137 32 63 32 181 0 312 -19 78 -21 101
-11 113 29 34 291 211 500 337 152 91 460 258 477 258 7 0 41 -25 75 -55 99
-87 173 -133 236 -145 31 -7 64 -15 72 -19 8 -5 37 -59 64 -121 49 -109 49
-113 33 -139 -57 -89 -62 -110 -63 -249 l-1 -134 -114 -60 c-294 -154 -515
-294 -779 -494 -145 -109 -403 -327 -460 -387 -19 -20 -38 -37 -43 -37 -5 0
-41 16 -81 35 -93 46 -170 60 -251 46 -34 -6 -67 -11 -74 -11 -6 0 -66 53
-134 118 -67 65 -197 188 -288 273 -91 85 -318 298 -504 474 -185 176 -397
375 -469 443 -96 90 -131 129 -130 145 1 12 14 54 30 92 34 87 38 210 9 290
l-18 50 79 73 c43 39 85 72 92 72 7 0 25 -6 40 -14 83 -43 216 -40 328 7 33
14 64 25 71 26 6 0 167 -186 358 -414z m10366 51 c95 -36 171 -42 250 -21 35
10 72 18 83 19 11 1 46 -29 89 -77 71 -78 71 -78 58 -110 -7 -18 -20 -61 -28
-96 -17 -79 -6 -172 32 -257 14 -31 25 -60 25 -64 0 -10 -824 -698 -845 -706
-7 -3 -31 6 -53 21 -83 54 -211 71 -294 38 -76 -30 -114 -69 -167 -172 -59
-117 -81 -189 -81 -272 0 -147 113 -249 274 -249 28 0 98 11 156 25 58 14 112
25 120 24 38 0 334 -460 520 -807 79 -148 91 -177 82 -195 -6 -12 -41 -56 -78
-97 -66 -73 -124 -175 -124 -217 0 -55 -15 -68 -130 -118 -109 -47 -113 -48
-139 -32 -89 57 -110 62 -250 63 -106 0 -136 3 -143 15 -4 8 -40 75 -79 149
-217 409 -490 794 -801 1132 -49 53 -88 99 -88 103 0 4 16 39 35 79 43 87 59
173 45 246 -6 29 -10 61 -10 70 0 10 60 80 133 157 72 76 195 206 272 289 77
83 284 302 460 488 176 186 376 399 445 473 97 104 130 133 145 129 11 -2 50
-16 86 -30z m-5437 -392 c9 -3 16 -12 16 -19 0 -7 9 -42 20 -77 33 -108 114
-194 200 -213 136 -31 262 42 333 192 l30 65 56 -6 c180 -21 527 -103 796
-188 265 -83 696 -257 716 -289 3 -6 2 -34 -4 -62 -18 -101 2 -202 58 -287 17
-25 15 -29 -106 -250 -67 -124 -129 -233 -137 -242 -11 -13 -30 -18 -66 -18
-59 0 -123 -27 -173 -71 -20 -17 -40 -28 -47 -26 -6 3 -76 33 -156 67 -183 78
-294 119 -462 169 -197 58 -519 131 -582 131 -30 0 -41 14 -55 67 -17 62 -69
132 -121 159 -54 29 -144 33 -195 8 -48 -23 -102 -78 -128 -132 l-22 -47 -215
-7 c-200 -6 -411 -24 -569 -48 -202 -32 -543 -115 -710 -175 -62 -21 -73 -19
-112 21 -44 46 -101 75 -164 83 l-50 6 -102 245 c-56 135 -102 253 -102 263
-1 10 12 35 29 55 44 55 61 115 64 219 1 51 4 94 7 96 13 12 299 101 469 146
315 83 716 145 1070 164 111 6 399 7 414 1z m-2452 -604 c64 -65 123 -99 194
-110 32 -5 63 -15 70 -22 7 -7 52 -103 100 -213 47 -110 95 -220 106 -244 19
-44 19 -45 0 -70 -42 -57 -55 -96 -58 -171 l-3 -75 -43 -24 c-424 -232 -674
-406 -955 -664 l-72 -66 -36 15 c-81 33 -160 37 -227 9 -13 -5 -65 39 -210
176 -106 100 -198 188 -205 196 -8 10 -8 24 -2 46 22 78 2 198 -47 284 -24 42
-22 45 107 162 220 198 451 373 710 539 204 130 475 280 508 282 7 0 36 -22
63 -50z m5264 -296 c127 -84 355 -253 410 -303 25 -23 33 -38 29 -49 -48 -116
-63 -204 -45 -272 6 -25 14 -54 17 -66 5 -20 -92 -133 -302 -352 l-70 -73 -48
11 c-59 13 -118 4 -181 -27 -48 -24 -49 -24 -72 -6 -92 73 -225 171 -314 232
l-105 72 0 92 c0 77 -4 100 -24 138 l-23 47 38 68 c94 169 214 381 228 400 12
17 29 22 78 26 74 6 144 38 213 98 25 22 49 40 52 40 3 0 57 -34 119 -76z
m-2826 -349 c27 -63 63 -108 105 -131 34 -18 36 -22 33 -63 -3 -41 -6 -46 -47
-68 -59 -31 -74 -46 -102 -99 -24 -44 -24 -44 -79 -44 -62 0 -80 -11 -80 -49
0 -43 15 -54 75 -59 56 -5 57 -5 75 -47 10 -23 40 -61 70 -87 43 -38 51 -50
48 -74 -2 -21 -12 -33 -33 -43 -39 -18 -83 -59 -101 -93 -12 -24 -21 -28 -55
-28 -56 0 -79 -15 -79 -49 0 -37 16 -49 69 -53 31 -2 47 -9 55 -23 46 -83 99
-118 181 -118 62 0 103 20 146 73 l34 40 67 -13 67 -12 36 -60 c37 -60 37 -60
24 -118 -12 -57 -13 -58 -68 -85 -71 -34 -101 -77 -101 -144 0 -62 20 -101 72
-138 61 -44 119 -39 200 16 44 31 72 22 82 -27 8 -42 49 -95 88 -115 39 -20
102 -13 165 18 44 22 45 22 59 3 8 -10 15 -31 16 -47 0 -15 1 -33 2 -40 1 -6
-18 -22 -41 -35 -41 -23 -44 -23 -80 -7 -219 94 -405 152 -592 185 -78 13 -81
15 -112 67 -20 34 -86 71 -127 72 -36 0 -86 -25 -124 -62 l-34 -35 -160 -6
c-220 -8 -503 -58 -685 -122 -41 -15 -44 -15 -79 10 -20 14 -48 25 -62 25 -26
0 -58 31 -58 56 0 11 147 74 172 74 6 0 23 -11 39 -24 32 -27 125 -51 155 -40
39 15 83 57 103 98 27 58 47 64 85 27 55 -54 139 -76 189 -50 33 17 77 60 93
92 11 21 22 27 48 27 110 0 147 20 131 70 -6 18 -15 20 -87 20 l-80 0 -40 45
c-22 25 -45 45 -52 45 -7 0 -20 6 -29 13 -18 13 -27 72 -63 426 l-16 163 31
29 c78 71 82 181 8 257 -78 81 -211 54 -257 -52 l-18 -42 -98 -18 c-131 -24
-301 -67 -446 -113 l-119 -36 -32 30 c-40 39 -80 59 -135 68 -74 12 -93 69
-43 133 34 44 51 91 51 144 0 36 3 40 44 58 103 44 445 135 620 165 261 45
445 62 689 64 l168 1 19 -45z m565 -15 c284 -43 716 -177 1003 -310 l90 -42 4
-78 c4 -64 10 -87 31 -119 15 -22 27 -47 27 -55 0 -13 -43 -94 -252 -474 -53
-95 -95 -161 -102 -159 -58 25 -264 122 -273 129 -9 8 -5 28 16 86 50 138 61
154 110 168 53 15 88 46 112 99 25 53 23 102 -4 149 -45 80 -127 107 -205 67
-22 -11 -43 -25 -47 -31 -10 -16 -35 -12 -198 35 -86 24 -231 59 -323 77 -123
23 -167 36 -171 47 -15 54 -59 122 -94 147 -35 24 -39 31 -39 70 0 43 1 44 50
65 44 19 67 40 145 131 8 10 20 16 27 14 7 -2 49 -10 93 -16z m-2497 -395 c41
-34 110 -65 149 -65 39 0 60 -20 69 -66 5 -25 2 -40 -9 -52 -28 -30 -47 -89
-47 -142 l0 -50 -52 -26 c-94 -46 -350 -203 -443 -270 -65 -46 -96 -63 -110
-58 -72 21 -107 23 -145 8 -132 -53 -132 -234 0 -302 33 -17 56 -22 87 -19 22
2 45 2 50 -2 17 -12 153 -180 153 -189 0 -12 -216 -212 -229 -212 -10 0 -531
486 -531 495 0 2 5 27 11 55 9 42 8 65 -6 125 l-18 73 65 61 c203 190 504 409
745 544 182 102 208 115 220 116 6 1 25 -10 41 -24z m5769 -119 c291 -329 483
-597 685 -956 80 -142 128 -236 128 -251 0 -7 -29 -42 -63 -78 -51 -52 -68
-79 -85 -130 -12 -36 -22 -75 -22 -87 0 -12 -6 -26 -13 -32 -7 -6 -123 -59
-257 -117 l-243 -106 -38 26 c-51 36 -124 57 -184 53 l-50 -3 -29 55 c-177
339 -401 662 -642 928 l-84 93 16 37 c32 73 36 161 9 224 -5 14 16 42 91 121
55 56 143 149 196 205 86 90 101 102 120 95 13 -4 61 -8 108 -8 76 0 92 3 145
31 33 17 68 32 77 33 10 0 63 -51 135 -133z m-4521 -51 c9 -14 36 -37 60 -51
24 -14 44 -31 44 -37 0 -7 7 -59 15 -117 11 -81 11 -107 2 -116 -7 -6 -61 -19
-121 -28 -94 -15 -110 -15 -125 -3 -84 74 -190 57 -241 -39 -24 -46 -30 -50
-97 -73 l-71 -24 -40 33 c-28 22 -55 34 -87 37 -31 4 -50 12 -60 27 -21 29
-19 40 15 88 17 24 33 61 36 83 11 85 6 80 111 114 130 41 271 77 407 106 141
29 133 29 152 0z m1215 4 c123 -24 233 -51 349 -85 121 -35 140 -44 140 -64 0
-9 11 -39 25 -66 14 -27 25 -53 25 -59 0 -24 -76 -218 -87 -222 -7 -3 -60 10
-119 29 -96 29 -108 36 -120 63 -45 107 -156 137 -239 64 l-34 -30 -68 12
c-73 12 -93 22 -93 47 0 25 -51 92 -82 108 -23 12 -28 21 -28 50 0 31 4 37 43
54 50 23 76 44 106 88 27 39 40 40 182 11z m1661 -101 c59 -40 152 -108 208
-151 96 -74 101 -80 93 -105 -10 -33 -10 -166 0 -207 7 -28 -1 -40 -166 -220
-307 -334 -314 -341 -330 -330 -8 6 -64 50 -123 98 -60 49 -173 131 -251 183
-79 52 -143 99 -143 104 0 19 338 611 358 628 9 6 36 12 61 12 46 0 122 28
135 49 15 24 57 8 158 -61z m-6372 -33 c83 -35 151 -41 233 -20 l67 17 34 -29
c49 -40 349 -317 364 -335 10 -12 10 -27 1 -67 -13 -60 0 -136 32 -190 l20
-34 -29 -36 c-73 -92 -160 -210 -223 -304 l-69 -102 -93 0 c-77 0 -100 -4
-139 -24 l-46 -24 -219 123 c-285 161 -273 151 -273 205 0 77 -33 147 -121
257 l-22 26 78 119 c112 170 322 443 341 443 2 0 31 -11 64 -25z m2488 -200
c33 -28 101 -55 138 -55 16 0 28 -10 39 -29 14 -28 13 -33 -15 -86 -17 -31
-30 -72 -30 -89 0 -35 -12 -49 -68 -79 -32 -18 -33 -18 -84 7 -77 39 -163 30
-222 -22 -31 -28 -56 -93 -56 -149 l0 -53 -75 -56 c-87 -66 -76 -69 -173 51
-58 72 -63 83 -58 115 3 19 6 56 6 81 l0 47 77 53 c154 107 459 289 485 289 3
0 20 -11 36 -25z m1148 -116 c3 -6 12 -54 19 -106 l12 -95 -44 -43 c-23 -24
-43 -50 -43 -58 0 -20 -27 -47 -46 -47 -8 0 -22 9 -32 21 -20 24 -84 59 -107
59 -31 0 -58 129 -32 158 8 9 22 31 31 49 18 35 25 39 128 58 94 17 105 17
114 4z m1379 -119 c49 -17 93 -34 99 -40 9 -9 -45 -170 -66 -196 -5 -7 -24
-15 -42 -18 -19 -4 -50 -18 -70 -31 -56 -38 -73 -33 -100 28 -13 28 -33 61
-45 71 -23 21 -26 51 -8 110 10 32 23 46 67 72 30 18 60 33 66 34 5 0 50 -14
99 -30z m-1841 1 c10 -11 31 -23 46 -26 31 -7 44 -32 56 -111 5 -35 3 -44 -15
-56 -11 -8 -31 -39 -45 -69 l-24 -54 -84 -29 c-46 -16 -91 -27 -99 -24 -9 3
-30 44 -48 90 l-33 85 31 48 c17 27 31 60 31 74 0 39 11 49 71 70 70 25 92 25
113 2z m2200 -146 c63 -29 117 -58 120 -63 6 -10 -47 -117 -86 -174 -16 -23
-27 -28 -61 -28 -25 0 -56 -9 -75 -20 -45 -28 -68 -19 -76 29 -3 21 -17 54
-31 75 -14 20 -25 41 -25 47 0 15 61 172 73 187 12 16 22 12 161 -53z m1743
-38 c231 -261 438 -558 588 -845 l49 -92 -22 -28 c-37 -45 -72 -125 -72 -164
0 -31 -5 -40 -30 -53 -34 -18 -76 -20 -86 -4 -13 22 -90 49 -141 49 l-51 0
-64 118 c-82 149 -160 275 -237 382 -44 61 -60 91 -55 105 26 88 26 105 2 153
-45 92 -150 117 -240 57 -49 -33 -82 -101 -75 -155 3 -21 2 -42 -2 -47 -11
-16 -180 -153 -188 -153 -12 0 -213 216 -213 228 0 9 469 514 489 526 5 3 33
1 63 -5 42 -9 65 -8 108 4 89 24 88 24 177 -76z m-4419 -7 c15 -11 49 -24 75
-29 27 -5 53 -13 57 -17 17 -17 77 -172 71 -182 -3 -5 -44 -29 -90 -52 -83
-41 -85 -42 -113 -25 -16 9 -53 19 -83 22 -50 5 -57 9 -76 41 l-21 36 21 42
c12 22 21 59 21 81 0 45 12 64 55 87 40 20 51 20 83 -4z m3053 -169 c135 -89
349 -256 356 -277 2 -6 -29 -46 -69 -89 -71 -76 -73 -77 -112 -72 -23 3 -60 1
-83 -5 -41 -10 -42 -10 -120 49 -43 33 -104 77 -136 98 -32 21 -59 47 -62 59
-2 12 -6 35 -8 51 -3 17 -10 44 -17 60 -11 28 -8 37 40 123 28 50 58 92 65 92
7 0 73 -40 146 -89z m-4771 36 c41 1 89 3 107 5 29 3 53 -16 293 -235 143
-132 260 -243 260 -248 0 -5 -25 -39 -56 -76 -80 -94 -188 -241 -254 -346 -31
-50 -64 -95 -72 -100 -10 -7 -91 34 -294 148 -390 221 -350 191 -356 269 -3
36 -13 77 -22 91 -52 80 -55 60 33 191 44 66 114 163 156 217 72 92 79 98 103
90 15 -4 61 -7 102 -6z m1345 -114 c22 -8 55 -12 73 -9 29 4 35 1 59 -35 26
-39 26 -40 9 -77 -10 -21 -17 -57 -18 -79 0 -49 -26 -80 -55 -67 -10 4 -49 10
-87 13 l-70 6 -63 76 c-35 43 -61 83 -58 90 10 25 138 110 154 103 9 -4 34
-13 56 -21z m633 -95 c16 -16 15 -49 -3 -75 -8 -12 -19 -39 -23 -60 -7 -36
-15 -42 -113 -99 -150 -86 -298 -190 -411 -288 -96 -82 -99 -84 -140 -79 -24
3 -46 8 -50 12 -4 3 -8 31 -10 61 l-3 55 80 0 c51 0 91 5 110 15 43 22 75 84
75 147 0 66 17 79 79 57 58 -20 133 -9 165 23 32 31 56 84 56 120 0 36 16 51
95 91 68 35 76 37 93 20z m1183 -60 c27 -29 49 -56 49 -60 0 -4 -12 -14 -27
-22 -16 -8 -39 -26 -52 -40 -15 -16 -35 -26 -52 -26 -30 0 -52 -21 -47 -46 3
-18 20 -29 58 -39 14 -4 42 -26 62 -49 l38 -43 -52 -41 c-28 -23 -61 -42 -73
-42 -25 0 -39 -23 -30 -51 4 -12 16 -19 30 -19 15 0 37 -14 56 -35 54 -59 148
-66 194 -15 28 31 72 26 107 -12 23 -24 28 -37 23 -57 -4 -14 -10 -27 -13 -29
-32 -11 -74 -47 -82 -68 -15 -39 -12 -58 15 -99 15 -21 23 -45 20 -54 -14 -45
-97 -52 -140 -12 -32 31 -65 34 -110 11 -21 -11 -51 -20 -66 -20 -19 0 -30 -6
-34 -20 -9 -28 11 -50 44 -50 74 0 62 -69 -16 -94 -43 -14 -39 -58 8 -75 31
-11 38 -38 17 -59 -7 -7 -40 -12 -79 -12 -70 0 -196 -21 -288 -47 -49 -14 -55
-14 -69 1 -52 52 131 110 255 81 26 -6 36 -3 57 18 32 32 33 67 2 104 -16 19
-25 47 -30 88 -4 33 -9 76 -11 95 -5 30 0 40 30 73 29 30 43 37 74 37 56 0 78
31 45 64 -9 10 -33 16 -57 16 -35 0 -49 7 -83 38 l-40 37 -13 137 -13 138 26
31 c36 42 36 97 0 132 -50 50 -124 44 -174 -13 -21 -25 -41 -33 -120 -50 -52
-11 -135 -32 -183 -47 l-88 -26 -38 21 c-21 12 -48 22 -59 22 -32 0 -34 16 -7
56 14 20 25 45 25 54 0 26 16 35 125 69 202 62 415 96 639 99 l98 2 49 -52z
m-4309 -90 c123 -67 231 -128 241 -136 12 -11 17 -30 17 -66 0 -54 33 -140 64
-165 39 -33 38 -44 -24 -185 -133 -303 -228 -616 -294 -964 -9 -45 -16 -93
-16 -106 0 -30 -14 -41 -67 -55 -109 -30 -183 -119 -183 -224 0 -97 52 -175
148 -220 l47 -22 6 -210 c6 -211 27 -437 54 -595 29 -171 34 -197 60 -305 27
-111 92 -335 119 -411 l14 -42 -35 -33 c-50 -49 -84 -112 -92 -171 l-6 -52
-245 -103 c-135 -56 -252 -102 -261 -103 -8 0 -33 14 -56 30 -64 47 -117 62
-220 63 l-93 0 -19 51 c-100 269 -204 702 -250 1041 -32 235 -41 351 -48 622
-5 212 -4 253 8 257 8 2 46 14 85 25 82 24 153 73 191 134 20 32 27 59 31 114
4 64 1 79 -22 127 -33 68 -90 119 -173 158 l-65 31 7 61 c21 185 114 572 203
841 89 270 244 648 273 666 6 3 27 3 48 -2 90 -21 207 -4 273 42 24 16 46 29
50 29 4 0 107 -55 230 -122z m4701 91 c216 -45 547 -168 547 -204 0 -9 9 -38
21 -65 l21 -49 -82 -151 c-45 -82 -85 -150 -89 -150 -5 0 -40 14 -80 31 -78
35 -81 41 -52 105 15 33 26 44 50 49 40 9 66 47 66 98 0 75 -91 121 -169 85
-21 -9 -40 -7 -103 12 -42 12 -126 33 -185 45 -99 20 -111 24 -127 51 -10 16
-28 38 -40 48 -29 27 -26 40 14 59 19 9 40 26 47 37 16 25 35 25 161 -1z
m-2425 -86 c44 -53 61 -80 56 -92 -4 -9 -9 -48 -12 -88 -2 -40 -9 -77 -16 -82
-7 -6 -26 -7 -51 -1 -25 6 -54 5 -78 -1 -38 -10 -39 -10 -114 57 -41 37 -77
74 -80 81 -7 17 10 36 119 134 49 44 93 76 100 73 7 -3 41 -39 76 -81z m3468
-92 c54 -37 113 -81 130 -97 28 -27 30 -33 25 -79 l-6 -50 -48 -9 c-37 -6 -52
-5 -70 8 -12 8 -67 49 -122 89 l-100 73 -3 51 -3 51 43 15 c24 9 46 16 49 16
3 1 50 -30 105 -68z m685 -8 c84 -88 139 -152 139 -161 0 -4 -37 -39 -81 -76
-57 -47 -86 -65 -98 -60 -9 4 -47 9 -86 11 -83 6 -98 18 -84 68 7 23 6 48 -1
75 l-11 41 72 79 c39 44 77 80 83 80 7 0 36 -26 67 -57z m661 -47 c76 -92 328
-509 328 -541 0 -7 -11 -22 -24 -35 -26 -24 -56 -97 -56 -137 0 -15 -10 -28
-29 -38 -28 -14 -33 -13 -86 15 -31 17 -72 30 -89 30 -35 0 -49 12 -79 68 -18
32 -18 33 7 84 31 61 33 117 7 173 -32 69 -93 105 -180 105 l-51 0 -56 75
c-30 41 -53 79 -49 85 4 6 45 42 93 80 l86 69 80 -6 c66 -4 84 -9 98 -27z
m-3912 9 c14 -8 35 -14 47 -15 33 0 35 -14 16 -72 -25 -73 -24 -71 -107 -117
-40 -22 -111 -65 -157 -97 -74 -50 -90 -56 -138 -58 -46 -1 -57 -6 -82 -34
-61 -68 -20 -172 68 -172 31 0 43 -6 66 -34 15 -19 27 -41 27 -48 0 -22 -96
-110 -114 -106 -10 1 -71 52 -136 112 l-118 110 1 75 2 75 99 83 c158 133 432
310 481 312 11 0 31 -6 45 -14z m713 -57 c44 -30 47 -36 47 -90 0 -51 0 -51
-75 -63 -28 -4 -50 -1 -70 9 -17 9 -41 16 -55 16 -33 0 -87 -33 -95 -59 -4
-13 -21 -25 -44 -32 -31 -9 -43 -8 -69 5 -17 9 -38 16 -46 16 -25 0 -27 18 -6
57 11 21 20 44 20 51 0 18 44 35 181 71 99 26 127 32 172 40 5 0 23 -9 40 -21z
m831 -14 c135 -34 162 -47 181 -85 14 -27 15 -38 5 -75 -7 -24 -18 -48 -25
-54 -21 -17 -106 19 -146 62 -31 32 -42 38 -78 38 -23 0 -53 -7 -66 -16 -38
-25 -77 -10 -124 46 l-42 49 28 15 c16 7 37 24 48 36 17 19 26 21 70 15 27 -3
95 -17 149 -31z m-2695 -107 c29 -31 33 -40 27 -70 -4 -19 -2 -56 4 -81 l10
-47 -58 -77 c-32 -42 -76 -103 -97 -135 -21 -32 -47 -59 -59 -62 -12 -2 -34
-6 -51 -8 -16 -3 -44 -10 -61 -17 -29 -13 -36 -10 -122 40 -51 29 -92 58 -92
64 0 32 243 374 333 470 l37 38 47 -40 c27 -22 63 -56 82 -75z m3534 36 c30
-21 82 -59 116 -85 56 -44 61 -51 61 -87 0 -21 3 -52 6 -67 5 -26 -6 -42 -112
-157 -64 -70 -121 -127 -125 -127 -4 0 -31 21 -61 46 -29 25 -95 73 -146 107
-67 45 -92 67 -88 79 10 42 161 290 180 298 17 6 77 23 107 29 4 0 31 -16 62
-36z m1153 -159 c36 -52 36 -52 19 -84 -10 -18 -18 -57 -19 -86 -3 -59 -13
-76 -55 -94 -24 -9 -35 -9 -60 5 -17 8 -51 16 -76 17 -57 1 -84 26 -67 64 7
13 12 52 12 84 l0 59 81 66 82 66 23 -22 c13 -12 40 -46 60 -75z m-3426 51
c14 -8 35 -14 48 -15 30 0 36 -20 17 -56 -8 -16 -15 -35 -15 -41 0 -7 -11 -20
-24 -28 -21 -14 -31 -14 -65 -4 -81 24 -154 -21 -167 -103 -7 -41 -51 -88 -83
-88 -10 0 -31 18 -46 39 -23 34 -26 46 -20 80 6 35 14 44 78 87 89 60 229 142
242 143 6 0 21 -6 35 -14z m5627 -9 c63 -53 157 -80 255 -75 61 4 63 3 77 -26
21 -43 96 -287 135 -439 95 -366 142 -676 166 -1086 13 -225 13 -376 0 -400
-6 -11 -26 -22 -48 -26 -113 -21 -218 -101 -252 -192 -51 -136 24 -278 186
-354 44 -21 64 -36 64 -48 0 -32 -60 -340 -91 -470 -80 -329 -182 -628 -329
-960 -23 -52 -46 -99 -51 -105 -6 -6 -62 -10 -127 -10 -121 0 -153 -8 -232
-60 -25 -17 -29 -15 -268 116 l-242 132 0 56 c0 59 -32 144 -64 170 -39 33
-38 45 20 178 144 329 275 773 309 1045 8 65 14 72 70 87 73 19 133 66 160
124 59 126 12 250 -121 318 l-49 25 -7 215 c-13 443 -68 776 -197 1196 -23 73
-41 138 -41 146 0 7 16 29 36 48 46 44 75 101 83 164 l6 50 90 37 c50 20 160
66 245 102 85 35 163 65 172 65 9 1 29 -10 45 -23z m-8134 -37 c23 -12 105
-56 182 -99 77 -42 200 -109 273 -149 72 -40 132 -74 132 -77 0 -2 -21 -48
-46 -102 -26 -53 -55 -116 -64 -138 -10 -23 -23 -45 -29 -48 -11 -7 -210 69
-227 87 -6 7 -16 31 -22 54 -22 75 -117 134 -195 119 -76 -14 -137 -82 -137
-154 0 -34 19 -80 50 -119 17 -21 16 -27 -21 -150 -42 -138 -79 -294 -104
-438 -8 -49 -19 -92 -23 -95 -4 -4 -28 -15 -55 -24 -32 -12 -61 -34 -90 -67
-38 -44 -46 -49 -84 -49 -41 0 -43 1 -64 50 -20 46 -96 130 -118 130 -37 0
-22 128 49 417 63 255 149 505 248 716 l45 97 64 0 c60 0 144 27 159 51 8 14
32 11 77 -12z m3171 3 c2 -4 7 -23 11 -42 5 -30 2 -40 -28 -74 l-35 -39 -45
21 c-25 12 -48 31 -52 42 -10 30 29 88 63 93 49 7 81 7 86 -1z m2201 -87 c0
-51 5 -91 15 -110 22 -43 84 -75 147 -75 66 0 78 -17 58 -82 -18 -62 -9 -126
23 -160 31 -34 81 -58 119 -58 37 0 54 -18 93 -103 26 -55 30 -70 20 -82 -17
-20 -43 -19 -87 5 -21 11 -48 20 -61 20 -16 0 -30 13 -50 46 -149 255 -211
344 -338 490 -63 72 -73 90 -68 112 3 15 7 37 10 49 4 22 35 32 94 29 24 -1
25 -3 25 -81z m-2457 15 c39 -24 40 -43 7 -102 -19 -35 -34 -47 -64 -56 -55
-17 -60 -16 -78 22 -15 32 -15 36 6 79 28 57 35 63 91 76 3 0 20 -8 38 -19z
m1106 6 c19 -8 36 -18 40 -24 11 -19 -24 -82 -52 -93 -47 -18 -82 -22 -82 -10
0 7 -10 25 -21 41 -51 68 24 124 115 86z m199 -80 c30 -13 58 -29 62 -36 4 -6
0 -29 -10 -50 -13 -29 -24 -39 -49 -43 -17 -3 -39 -8 -48 -12 -13 -5 -22 4
-37 36 -12 24 -21 47 -21 51 0 19 30 78 39 78 6 0 35 -11 64 -24z m-2739 -59
c6 -37 5 -52 -7 -70 -9 -12 -49 -67 -89 -122 l-73 -100 -51 -3 -51 -3 -17 46
-18 46 27 42 c15 23 57 82 93 130 l65 88 56 -3 56 -3 9 -48z m1158 18 c34 -12
49 -24 61 -51 20 -42 18 -48 -34 -74 -34 -18 -45 -19 -86 -9 -27 7 -52 15 -57
20 -8 7 18 92 37 117 12 16 24 15 79 -3z m2605 -73 c36 -41 91 -109 122 -151
76 -103 211 -330 211 -356 -1 -11 -7 -31 -15 -45 -8 -14 -14 -38 -15 -54 0
-31 -7 -32 -80 -6 -60 22 -64 25 -117 119 -28 50 -73 122 -99 159 -41 58 -47
74 -48 121 -1 46 -5 57 -34 82 -67 60 -158 27 -169 -61 -4 -34 -14 -52 -37
-72 -17 -15 -38 -27 -46 -28 -23 0 -113 94 -108 115 1 9 53 70 113 135 l110
117 73 0 73 0 66 -75z m-761 -37 c94 -63 174 -132 174 -148 0 -6 -12 -24 -27
-39 -22 -23 -35 -28 -75 -28 -42 0 -58 7 -121 50 -60 42 -75 59 -89 97 -16 44
-16 47 3 84 11 23 27 39 37 39 9 0 53 -25 98 -55z m-1307 28 c35 -20 36 -23
51 -142 11 -80 10 -84 -11 -107 -12 -13 -32 -24 -43 -24 -11 0 -53 -9 -95 -21
-63 -18 -81 -19 -113 -10 -41 13 -46 26 -24 57 12 16 25 19 87 17 63 -3 76 0
96 19 34 32 31 81 -7 110 -35 26 -38 49 -9 89 24 34 27 35 68 12z m765 -67
l19 -36 -34 -91 c-45 -120 -54 -127 -151 -101 -40 11 -89 23 -108 27 -45 8
-88 58 -70 80 21 25 73 18 110 -15 40 -36 86 -40 118 -10 24 23 29 68 11 101
-15 30 -3 52 38 70 21 9 40 15 43 13 3 -1 14 -18 24 -38z m-2109 -85 c69 -62
125 -117 125 -122 0 -5 -15 -26 -33 -46 -39 -45 -124 -162 -156 -215 -13 -21
-28 -38 -35 -38 -6 0 -76 36 -154 81 -149 84 -150 85 -170 169 -11 44 -10 47
32 110 24 36 62 88 84 117 40 50 43 52 99 56 32 2 64 3 70 3 7 -1 69 -52 138
-115z m1137 102 c42 -19 49 -43 23 -80 -17 -24 -71 -39 -103 -29 -22 7 -58 79
-47 96 19 31 74 36 127 13z m-519 -23 c5 -4 3 -30 -5 -56 l-14 -49 -44 0 c-46
0 -81 20 -101 58 -10 18 -8 24 17 44 25 20 36 23 84 17 30 -3 59 -10 63 -14z
m3574 0 c21 -11 56 -20 78 -20 48 0 57 -5 84 -50 27 -44 26 -51 -4 -96 -14
-20 -25 -51 -25 -68 0 -18 -6 -40 -12 -49 -17 -21 -172 -87 -185 -78 -6 3 -30
44 -53 90 -41 83 -42 85 -25 113 9 16 19 53 22 83 5 48 10 57 37 74 40 25 39
25 83 1z m1112 -50 c42 -34 88 -50 143 -50 44 0 45 -1 88 -130 123 -372 200
-845 200 -1242 l0 -146 -67 -34 c-54 -26 -74 -43 -98 -80 -29 -46 -32 -48 -74
-45 -42 2 -46 5 -68 46 -31 59 -46 74 -99 102 -44 24 -44 24 -44 79 0 62 -11
80 -49 80 -43 0 -54 -15 -59 -75 -5 -56 -5 -57 -47 -75 -23 -10 -61 -40 -87
-70 -38 -43 -50 -51 -74 -48 -21 2 -33 12 -43 33 -18 39 -59 83 -93 101 -24
12 -28 21 -28 55 0 56 -15 79 -49 79 -37 0 -49 -16 -53 -69 -2 -31 -9 -47 -23
-55 -84 -47 -118 -99 -117 -182 0 -63 19 -102 71 -145 l40 -34 -12 -69 c-10
-58 -15 -70 -37 -79 -14 -6 -39 -22 -57 -35 -31 -23 -34 -23 -95 -10 -60 13
-63 15 -78 55 -28 76 -79 113 -155 113 -59 0 -98 -21 -135 -72 -42 -58 -36
-135 15 -197 40 -46 31 -71 -30 -85 -39 -10 -91 -50 -109 -85 -19 -36 -11
-112 17 -169 21 -43 21 -44 2 -58 -10 -8 -31 -15 -47 -15 -15 -1 -33 -2 -40
-3 -6 -1 -22 18 -35 41 l-23 42 44 103 c70 164 128 360 157 527 13 78 15 81
67 112 34 20 71 86 72 127 0 37 -28 94 -64 127 l-33 30 -6 165 c-7 194 -40
399 -92 580 -20 68 -38 126 -40 129 -3 2 6 23 20 47 14 23 25 54 25 68 0 24
32 56 56 56 12 0 74 -145 74 -170 0 -6 -11 -26 -25 -44 -13 -17 -29 -56 -36
-85 -10 -50 -10 -55 18 -98 18 -31 43 -54 72 -69 63 -31 70 -49 33 -87 -55
-57 -77 -140 -49 -190 19 -35 60 -78 88 -92 24 -13 27 -21 33 -94 8 -85 20
-101 66 -86 18 6 20 15 20 87 l0 81 41 35 c23 20 48 50 55 68 17 40 -27 32
482 85 l114 12 29 -32 c71 -78 180 -82 257 -8 81 78 54 211 -52 257 l-42 18
-18 98 c-24 131 -67 301 -113 446 l-36 119 30 32 c39 41 53 69 67 132 8 36 18
53 36 62 38 19 58 16 99 -17z m-4364 -10 c22 -43 19 -76 -11 -99 -26 -21 -45
-21 -101 0 -20 7 -21 10 -9 51 9 28 23 49 42 60 41 25 61 22 79 -12z m1364
-17 l14 -40 -73 -134 c-40 -74 -80 -142 -88 -151 -21 -25 -67 -22 -139 6 -53
20 -128 41 -220 61 -12 3 -27 14 -33 25 -8 16 -6 22 13 34 21 14 31 14 106 -4
66 -16 92 -28 123 -55 21 -19 47 -35 59 -35 52 0 87 48 69 95 -8 20 -2 45 28
122 34 88 40 97 72 109 47 17 53 14 69 -33z m-3349 -13 c98 -54 100 -56 100
-104 0 -24 9 -55 20 -74 28 -46 19 -69 -30 -77 -22 -4 -56 -18 -75 -31 -20
-13 -43 -24 -51 -24 -17 0 -163 59 -182 73 -16 12 -12 22 53 163 41 86 59 114
73 114 11 0 52 -18 92 -40z m1454 -33 c22 -29 24 -39 18 -82 l-7 -50 -47 -3
c-38 -2 -52 3 -77 24 -17 14 -31 32 -31 39 0 14 94 105 109 105 6 0 21 -15 35
-33z m2163 -76 c44 -35 51 -45 55 -83 4 -41 2 -45 -90 -148 -120 -134 -138
-150 -169 -150 -35 0 -129 72 -137 104 -5 21 10 56 74 169 45 78 85 146 90
151 4 4 23 11 42 15 39 9 64 -2 135 -58z m387 -21 c25 -27 46 -54 46 -59 0 -6
-15 -21 -33 -35 -29 -22 -39 -24 -82 -18 l-50 7 -2 44 c-2 34 3 52 23 78 14
18 31 33 38 33 7 0 34 -22 60 -50z m-2221 21 c4 -4 2 -21 -4 -39 -22 -65 41
-132 110 -116 33 8 81 52 81 75 0 25 27 49 55 49 32 0 39 -14 26 -53 -9 -26
-29 -42 -99 -84 -118 -70 -140 -68 -218 28 -54 66 -55 69 -48 115 l7 46 41 -6
c22 -4 44 -10 49 -15z m2535 -27 c33 -7 87 -78 176 -231 l47 -81 -19 -56 c-10
-31 -22 -59 -25 -62 -4 -4 -22 1 -41 10 -19 9 -39 16 -45 16 -6 0 -18 11 -27
25 -13 20 -14 29 -3 58 27 77 -21 160 -100 173 -31 5 -48 15 -67 39 -33 43
-30 57 13 88 41 29 45 30 91 21z m1534 -24 c24 -17 61 -33 83 -36 86 -11 80
-5 118 -126 42 -131 77 -271 107 -417 l20 -104 -33 -31 c-19 -17 -42 -46 -51
-63 -9 -18 -22 -33 -29 -33 -6 0 -59 -7 -117 -15 -91 -12 -106 -12 -116 0 -6
8 -18 62 -28 120 l-17 105 27 35 c60 79 37 177 -51 224 -46 24 -50 30 -73 99
l-24 72 31 35 c16 19 33 52 36 72 11 63 16 74 38 83 32 13 33 13 79 -20z
m-4570 -47 c24 -23 28 -35 28 -79 0 -40 -5 -59 -23 -81 -13 -15 -37 -48 -54
-73 -25 -37 -39 -48 -78 -58 -43 -11 -50 -11 -81 9 -19 11 -34 29 -34 39 0 34
178 270 204 270 5 0 23 -12 38 -27z m-1771 -32 c57 -22 105 -45 107 -51 3 -7
-11 -59 -29 -117 -30 -94 -37 -107 -64 -119 -107 -45 -137 -156 -64 -239 l30
-34 -12 -68 c-13 -77 -19 -88 -55 -97 -37 -10 -83 -46 -100 -78 -12 -23 -21
-28 -50 -28 -31 0 -37 4 -54 43 -22 49 -43 74 -87 105 -24 17 -33 31 -33 52 0
56 56 308 106 480 40 137 39 135 94 149 27 7 54 19 61 27 17 21 35 18 150 -25z
m2163 -58 c48 -58 56 -73 56 -109 0 -27 7 -51 21 -68 17 -22 28 -26 71 -26
l51 0 -23 -25 c-44 -46 -67 -36 -197 87 -65 61 -121 117 -125 124 -8 12 -8 62
-1 77 2 4 24 7 48 7 42 0 46 -3 99 -67z m-1314 2 l19 -38 -30 -71 c-78 -179
-141 -390 -171 -564 -12 -71 -14 -75 -51 -93 -99 -51 -112 -176 -27 -260 l37
-37 6 -158 c8 -220 58 -504 122 -685 15 -41 14 -45 -5 -71 -11 -15 -23 -42
-27 -60 -7 -40 -30 -68 -54 -68 -12 0 -26 22 -48 81 -17 44 -31 85 -31 91 0 6
11 23 24 39 30 35 51 125 37 160 -12 31 -79 95 -109 104 -12 3 -27 16 -33 27
-9 17 -6 25 20 52 89 92 78 198 -27 269 -35 24 -42 34 -42 61 0 110 -20 147
-70 131 -18 -6 -20 -15 -20 -87 l0 -80 -45 -40 c-25 -22 -45 -45 -45 -52 0
-41 -19 -46 -285 -76 -320 -37 -320 -37 -341 -5 -36 55 -143 81 -209 50 -132
-63 -133 -238 -1 -295 l42 -18 18 -98 c24 -131 67 -301 113 -446 l36 -119 -31
-32 c-35 -36 -57 -83 -67 -143 -5 -31 -13 -44 -31 -53 -35 -16 -69 -14 -85 6
-23 27 -111 63 -156 63 -50 0 -49 -2 -98 146 -120 361 -195 833 -195 1229 l0
142 68 34 c52 27 74 44 97 81 29 46 31 48 75 45 42 -2 46 -5 63 -42 25 -53 60
-89 108 -110 39 -18 39 -18 39 -75 0 -62 11 -80 50 -80 42 0 53 15 58 75 4 55
6 57 44 72 22 9 60 39 87 70 41 45 54 54 77 51 21 -2 33 -12 43 -33 18 -39 59
-83 94 -101 23 -12 27 -21 27 -55 0 -55 15 -79 48 -79 39 0 52 17 52 66 0 38
3 43 49 72 120 74 127 228 16 319 l-35 28 12 69 c11 58 16 70 38 79 14 6 39
22 57 35 31 23 34 23 95 10 60 -14 64 -16 78 -55 28 -75 81 -115 155 -115 56
0 99 23 135 74 42 58 36 135 -15 197 -40 46 -31 71 30 85 41 10 92 50 111 88
20 39 13 102 -18 165 -25 50 -21 58 42 71 52 10 53 9 80 -43z m3780 5 c18 -26
20 -38 14 -86 -3 -31 -12 -58 -18 -60 -6 -2 -31 2 -56 9 l-45 13 3 50 c3 39 9
54 33 77 37 34 43 34 69 -3z m-322 -51 c3 -45 2 -46 -63 -102 -59 -51 -71 -57
-111 -57 -63 0 -94 -32 -94 -96 0 -46 -1 -47 -19 -30 -10 9 -21 31 -25 48 -7
34 1 44 157 206 75 77 83 83 116 80 35 -3 36 -4 39 -49z m-1713 12 c0 -19 -17
-34 -85 -77 -128 -80 -125 -80 -112 -18 7 34 16 44 77 82 79 48 120 53 120 13z
m577 4 c33 -28 75 -32 104 -10 37 28 115 12 85 -18 -16 -16 -13 -44 5 -51 23
-9 34 2 34 35 0 36 8 36 102 3 101 -36 133 -80 91 -126 -21 -23 -45 -23 -110
2 -29 11 -83 27 -120 36 -37 10 -81 28 -96 41 -32 26 -73 30 -102 9 -11 -7
-65 -19 -119 -25 -55 -6 -128 -19 -162 -27 -35 -9 -75 -13 -88 -10 -36 9 -51
40 -36 77 13 31 54 48 168 68 88 16 103 18 161 20 43 1 59 -4 83 -24z m2765
-5 c26 -16 58 -30 72 -30 39 0 49 -11 71 -75 25 -72 25 -87 1 -109 -11 -10
-23 -31 -26 -47 -6 -24 -15 -31 -58 -44 -70 -21 -86 -19 -117 11 -14 15 -45
34 -69 43 -41 15 -45 20 -72 96 -16 44 -28 89 -27 99 2 15 25 29 83 53 44 17
83 32 87 33 4 0 29 -13 55 -30z m-5615 -32 c102 -39 104 -41 112 -82 4 -19 18
-50 31 -70 39 -58 32 -86 -27 -100 -15 -3 -44 -20 -63 -37 -31 -28 -40 -31
-75 -25 -65 10 -88 24 -110 63 -11 21 -26 46 -32 55 -10 14 -8 31 11 90 32
101 48 138 60 138 5 0 47 -14 93 -32z m919 -49 c82 -45 149 -85 149 -91 0 -5
-14 -40 -32 -79 -34 -76 -40 -79 -104 -50 -33 15 -44 26 -49 50 -9 40 -47 66
-98 66 -75 0 -121 -91 -85 -169 9 -21 7 -40 -12 -103 -12 -42 -33 -126 -45
-186 -17 -83 -26 -112 -41 -120 -10 -5 -35 -25 -55 -44 l-36 -34 -26 44 c-15
25 -34 48 -43 51 -14 5 -16 16 -10 64 15 131 101 418 171 568 30 67 35 72 71
78 21 4 47 14 58 22 11 8 24 14 29 14 5 0 76 -36 158 -81z m828 -66 c134 -122
141 -130 141 -161 0 -33 -73 -130 -104 -138 -18 -4 -60 14 -170 76 -81 46
-151 90 -155 99 -9 15 -14 54 -12 77 1 6 24 41 51 78 50 65 52 66 97 66 44 0
50 -4 152 -97z m606 31 c10 -10 15 -29 13 -48 -3 -26 -14 -38 -79 -81 -42 -27
-94 -65 -116 -82 -23 -18 -50 -33 -62 -33 -25 0 -61 37 -61 63 0 26 65 85 160
148 79 51 117 60 145 33z m1738 -10 c35 -6 37 -9 37 -44 0 -48 -18 -64 -54
-50 -82 31 -152 -68 -102 -145 10 -14 34 -34 54 -42 42 -17 52 -29 52 -60 0
-30 -15 -36 -53 -23 -26 8 -42 28 -84 100 -69 117 -66 138 27 215 70 59 67 58
123 49z m-619 -69 c21 -19 36 -42 36 -56 0 -30 -28 -59 -57 -59 -33 0 -100 49
-108 78 -11 43 33 86 76 75 9 -3 33 -20 53 -38z m-649 15 c3 -5 -6 -17 -20
-26 -24 -16 -27 -16 -45 1 -11 10 -20 22 -20 27 0 11 77 10 85 -2z m1585 -6
c71 -23 77 -34 57 -98 -14 -43 -23 -55 -53 -69 -42 -21 -51 -17 -74 35 -17 38
-16 52 6 136 4 15 5 15 64 -4z m-1730 -3 c0 -16 -25 -29 -86 -45 -77 -20 -74
-20 -74 3 0 14 13 22 53 34 59 17 107 21 107 8z m369 -9 c96 -30 71 -59 -29
-34 -59 15 -83 29 -74 43 8 13 42 10 103 -9z m-1843 -41 c19 -12 33 -30 37
-47 3 -16 9 -37 12 -46 5 -13 -3 -22 -38 -39 -47 -23 -76 -22 -112 5 -19 14
-19 15 5 67 40 89 44 92 96 60z m3842 -30 c32 -9 45 -33 78 -147 57 -195 94
-439 94 -617 l0 -98 -51 -50 c-49 -48 -69 -59 -69 -39 0 6 -18 30 -40 54 -25
26 -40 53 -40 68 0 30 -22 51 -46 46 -18 -3 -29 -20 -39 -58 -4 -14 -26 -42
-49 -62 l-43 -38 -41 52 c-23 28 -42 61 -42 74 0 25 -26 39 -54 28 -9 -3 -16
-17 -16 -30 0 -14 -14 -36 -35 -55 -59 -54 -66 -148 -15 -194 12 -11 20 -31
20 -51 0 -68 -110 -111 -126 -49 -8 33 -46 65 -85 71 -26 4 -43 0 -72 -20 -46
-32 -51 -32 -77 -3 -27 28 -20 87 15 129 30 36 31 62 5 106 -11 18 -20 46 -20
62 0 20 -6 31 -20 35 -28 9 -48 -10 -52 -47 -4 -43 -31 -58 -58 -33 -12 11
-28 34 -35 52 -20 47 -54 43 -74 -10 -11 -28 -44 -37 -56 -16 -4 5 -11 58 -16
117 -5 59 -20 150 -33 202 -24 97 -22 130 9 130 23 0 43 -39 64 -124 17 -69
18 -81 5 -112 -36 -85 43 -148 113 -90 22 18 48 26 122 34 l93 11 39 -32 c33
-27 39 -38 39 -72 0 -44 14 -65 42 -65 23 0 38 30 38 77 0 30 8 46 38 79 l37
40 137 13 138 13 31 -26 c57 -48 137 -28 160 41 15 48 -1 102 -40 131 -21 15
-32 34 -37 59 -10 60 -33 151 -61 246 l-26 88 21 38 c12 21 22 48 22 59 0 29
20 32 53 10 15 -11 40 -23 55 -27z m-1850 -10 c3 -16 -1 -22 -10 -19 -7 3 -15
15 -16 27 -3 16 1 22 10 19 7 -3 15 -15 16 -27z m-793 -11 c0 -16 -102 -79
-127 -80 -33 0 -18 20 44 60 62 40 83 45 83 20z m410 9 c8 -12 -34 -61 -46
-53 -11 6 -12 48 -2 57 10 11 41 8 48 -4z m-137 -20 c-2 -6 -8 -10 -13 -10 -5
0 -11 4 -13 10 -2 6 4 11 13 11 9 0 15 -5 13 -11z m282 1 c0 -5 -4 -10 -10
-10 -5 0 -10 5 -10 10 0 6 5 10 10 10 6 0 10 -4 10 -10z m1302 -46 c25 -42 22
-61 -13 -79 -40 -21 -78 -16 -101 15 -16 22 -17 31 -7 60 6 19 12 40 14 47 7
21 88 -11 107 -43z m-1205 10 c-9 -9 -28 6 -21 18 4 6 10 6 17 -1 6 -6 8 -13
4 -17z m-477 6 c0 -5 -4 -10 -10 -10 -5 0 -10 5 -10 10 0 6 5 10 10 10 6 0 10
-4 10 -10z m771 -13 c43 -37 43 -53 0 -100 l-39 -41 -41 27 c-48 32 -50 49
-16 100 30 43 57 47 96 14z m300 -16 c63 -67 139 -191 139 -228 0 -62 -79 -73
-115 -15 -11 18 -48 72 -82 120 -35 47 -63 93 -63 101 0 22 41 61 63 61 11 0
37 -18 58 -39z m152 12 c45 -9 134 -153 116 -186 -20 -34 -46 -19 -87 51 -22
37 -52 82 -66 101 -30 41 -33 56 -8 46 9 -3 30 -9 45 -12z m944 -3 c21 -11 43
-20 50 -20 7 0 17 -8 22 -19 15 -27 57 -177 76 -266 14 -68 14 -80 1 -100 -30
-46 -46 -55 -96 -55 l-49 0 -11 56 c-10 46 -9 61 4 89 9 18 16 44 16 57 0 31
-34 85 -59 93 -13 4 -24 20 -31 43 -8 31 -6 46 12 90 12 28 23 52 25 52 2 0
20 -9 40 -20z m-1583 -15 c-4 -8 -10 -15 -15 -15 -5 0 -9 7 -9 15 0 8 7 15 15
15 9 0 12 -6 9 -15z m-1602 -67 c73 -39 141 -78 151 -86 24 -21 21 -67 -7
-139 -20 -53 -41 -128 -61 -220 -3 -12 -14 -27 -25 -33 -16 -8 -22 -6 -34 13
-14 21 -14 31 4 106 16 66 28 92 55 123 36 40 43 65 24 99 -14 27 -47 38 -85
28 -25 -7 -48 -2 -124 29 -92 37 -95 39 -107 80 -12 42 -12 42 20 56 18 8 37
15 44 15 6 1 72 -31 145 -71z m1258 47 c19 -14 47 -25 63 -25 22 0 28 -4 25
-17 -5 -26 -53 -29 -70 -5 -7 10 -25 22 -40 26 -19 4 -28 13 -28 26 0 26 9 25
50 -5z m-1892 -5 c23 -10 42 -21 42 -23 0 -2 -7 -26 -17 -53 -10 -30 -31 -63
-55 -85 -32 -31 -38 -42 -38 -78 0 -23 7 -53 16 -66 24 -37 10 -77 -45 -123
l-47 -40 -38 51 c-43 57 -43 67 -5 222 36 145 49 175 83 196 39 24 50 23 104
-1z m1096 -12 c23 -32 20 -54 -11 -98 -43 -61 -101 -62 -124 -3 -8 22 -5 33
17 65 44 63 90 77 118 36z m3741 2 c4 -6 23 -19 44 -30 21 -10 41 -26 44 -35
15 -39 37 -199 29 -207 -5 -5 -43 -14 -83 -19 -41 -5 -84 -12 -97 -15 -18 -3
-31 5 -59 35 -20 22 -51 45 -69 51 -47 16 -52 43 -17 83 26 30 40 56 56 109 9
26 138 50 152 28z m-3547 -32 c-2 -13 -7 -23 -13 -23 -5 0 -11 10 -13 23 -2
15 2 22 13 22 11 0 15 -7 13 -22z m2313 -11 c24 -13 50 -36 58 -52 12 -26 12
-33 -5 -64 -24 -45 -44 -49 -100 -19 -31 16 -48 33 -59 61 -21 52 -19 64 13
81 36 20 42 20 93 -7z m-3383 -49 c6 -14 14 -39 17 -54 5 -25 0 -32 -31 -51
-53 -34 -79 -30 -103 16 -15 26 -7 84 15 118 13 21 16 21 51 9 23 -8 43 -23
51 -38z m2337 22 c8 -13 -20 -24 -41 -16 -20 8 -9 26 16 26 10 0 22 -5 25 -10z
m-1214 -33 c-1 -12 -15 -9 -19 4 -3 6 1 10 8 8 6 -3 11 -8 11 -12z m2064 -10
c20 -32 21 -65 1 -109 -12 -28 -22 -38 -39 -38 -35 0 -66 27 -73 64 -9 50 2
72 44 90 49 20 49 20 67 -7z m-1101 -6 c12 -13 14 -21 6 -26 -12 -8 -60 20
-60 35 0 17 36 11 54 -9z m-1057 -23 c18 -18 33 -36 33 -41 0 -17 -53 -77 -69
-77 -25 0 -91 48 -91 67 0 8 9 31 21 49 27 45 62 45 106 2z m1223 14 c0 -13
-12 -22 -22 -16 -10 6 -1 24 13 24 5 0 9 -4 9 -8z m152 -19 c50 -58 77 -133
48 -133 -12 0 -80 114 -80 134 0 21 13 20 32 -1z m-2118 -35 c117 -43 124 -54
98 -150 -11 -40 -23 -89 -26 -109 -8 -44 -59 -88 -82 -69 -25 21 -17 74 16
108 71 74 -2 179 -91 131 -29 -15 -53 -3 -68 33 -8 18 -15 36 -15 41 -1 8 53
45 69 46 6 1 50 -13 99 -31z m2702 -12 c16 -12 19 -25 17 -87 -3 -63 0 -76 19
-96 32 -34 81 -31 110 7 12 17 30 30 39 30 17 0 89 -37 89 -46 0 -7 -44 -68
-53 -75 -5 -3 -52 -11 -105 -18 -120 -15 -122 -13 -157 127 -22 87 -25 108
-15 137 13 38 26 43 56 21z m-2244 -23 c23 -21 23 -45 -2 -110 -11 -29 -27
-83 -36 -120 -10 -37 -28 -81 -41 -96 -26 -32 -30 -73 -9 -102 7 -11 19 -65
25 -120 6 -55 18 -125 26 -155 20 -74 19 -96 -6 -121 -23 -23 -65 -20 -86 8
-18 24 -52 179 -59 273 -6 81 -5 87 20 119 30 40 32 64 11 105 -17 32 -19 64
-5 86 7 12 12 12 22 2 16 -16 45 -16 50 1 9 23 -4 37 -33 37 -36 0 -36 8 -3
102 36 101 80 133 126 91z m374 -67 c-18 -28 -36 -34 -36 -13 0 7 7 23 16 36
24 33 43 11 20 -23z m864 29 c10 -13 10 -19 -5 -35 -34 -37 -68 -17 -44 26 14
28 31 31 49 9z m1485 -35 c32 -20 45 -50 45 -106 0 -27 -4 -30 -50 -38 -30 -5
-41 -1 -74 28 l-39 34 22 45 c30 62 46 68 96 37z m-3544 -22 c11 -13 31 -36
44 -53 20 -25 30 -30 68 -30 34 0 52 6 70 23 65 61 120 -56 58 -123 -31 -32
-34 -65 -11 -110 11 -21 20 -51 20 -66 0 -19 6 -30 20 -34 28 -9 50 11 50 44
0 74 69 62 94 -16 13 -41 62 -39 72 3 7 28 39 41 59 24 11 -9 15 -33 15 -80 0
-71 20 -197 47 -289 14 -49 14 -55 -1 -69 -52 -52 -110 131 -81 255 6 26 3 36
-18 57 -33 33 -64 33 -101 1 -16 -14 -34 -25 -40 -25 -6 0 -49 -4 -95 -10
l-83 -9 -39 32 c-33 27 -39 38 -39 73 0 59 -31 82 -64 48 -9 -9 -16 -32 -16
-56 0 -28 -7 -49 -24 -69 -13 -15 -26 -33 -28 -40 -2 -7 -62 -17 -150 -27
l-146 -16 -32 27 c-54 46 -126 31 -155 -30 -23 -49 -12 -99 30 -138 29 -26 37
-43 54 -125 12 -52 33 -135 48 -183 l26 -88 -21 -38 c-12 -21 -22 -48 -22 -59
0 -31 -17 -36 -46 -13 -14 11 -38 22 -54 26 -38 8 -44 16 -75 115 -60 191 -92
384 -102 605 l-6 142 53 52 c53 51 70 60 70 41 0 -6 18 -30 39 -53 22 -24 41
-55 43 -71 7 -62 66 -59 79 4 4 18 15 38 25 43 10 6 30 23 44 38 l25 28 43
-49 c25 -29 42 -59 42 -74 0 -15 7 -27 19 -31 28 -9 51 5 51 31 0 14 14 36 35
55 59 54 66 148 15 194 -30 27 -26 72 11 106 37 35 53 36 80 7z m963 13 c3 -5
-8 -14 -24 -20 -23 -8 -30 -7 -30 3 0 7 3 16 7 19 9 10 41 8 47 -2z m1799 -10
c31 -12 53 -72 72 -201 21 -133 20 -183 -4 -204 -29 -26 -35 -70 -17 -107 27
-55 15 -122 -17 -90 -16 16 -44 13 -51 -5 -9 -23 2 -34 35 -34 19 0 29 -5 29
-15 0 -27 -49 -158 -67 -177 -33 -37 -103 -11 -103 38 0 12 9 42 19 67 10 24
27 77 37 118 9 41 28 87 41 102 26 32 30 73 9 102 -8 11 -17 56 -21 100 -4 44
-15 115 -26 159 -24 99 -24 111 1 136 23 23 29 24 63 11z m-1733 -26 c10 -12
10 -15 -4 -15 -9 0 -16 7 -16 15 0 8 2 15 4 15 2 0 9 -7 16 -15z m322 -32 c35
-32 11 -66 -31 -43 -24 12 -27 30 -9 48 15 15 18 15 40 -5z m-450 -30 c6 -25
-21 -125 -37 -142 -32 -32 -29 45 5 133 11 30 27 34 32 9z m1723 -54 c23 -84
17 -123 -13 -86 -19 23 -41 131 -30 145 16 18 27 3 43 -59z m-1625 12 c0 -12
-20 -25 -27 -18 -7 7 6 27 18 27 5 0 9 -4 9 -9z m1500 -1 c0 -5 -4 -10 -10
-10 -5 0 -10 5 -10 10 0 6 5 10 10 10 6 0 10 -4 10 -10z m30 -95 c0 -8 -4 -15
-10 -15 -5 0 -10 7 -10 15 0 8 5 15 10 15 6 0 10 -7 10 -15z m-1560 -5 c0 -5
-4 -10 -10 -10 -5 0 -10 5 -10 10 0 6 5 10 10 10 6 0 10 -4 10 -10z m124 -46
c23 -9 20 -51 -4 -66 -11 -7 -20 -20 -20 -30 0 -29 -27 -45 -78 -46 -59 -2
-79 14 -58 44 14 19 15 19 38 -3 14 -13 28 -23 34 -23 19 0 64 69 64 99 0 33
1 34 24 25z m1558 -51 c8 -63 -10 -81 -38 -38 -16 24 -16 27 1 45 24 27 32 25
37 -7z m-103 -6 c8 -10 7 -19 -3 -33 -14 -18 -15 -18 -35 0 -12 11 -21 25 -21
33 0 17 44 17 59 0z m-103 -32 c-15 -20 -30 -51 -33 -71 -4 -25 -10 -34 -22
-32 -24 5 -26 53 -3 70 10 7 22 25 26 41 5 21 12 27 32 27 l26 0 -26 -35z
m-1580 -10 c16 -24 16 -27 -1 -45 -10 -11 -22 -20 -27 -20 -9 0 -11 74 -1 83
10 10 11 9 29 -18z m28 -211 c12 -47 14 -70 6 -78 -6 -6 -13 -6 -19 0 -12 12
-41 112 -41 141 0 20 3 22 19 14 12 -7 24 -34 35 -77z m78 71 c0 -5 -5 -11
-11 -13 -6 -2 -11 4 -11 13 0 9 5 15 11 13 6 -2 11 -8 11 -13z m1558 5 c0 -5
-4 -10 -10 -10 -5 0 -10 5 -10 10 0 6 5 10 10 10 6 0 10 -4 10 -10z m106 -39
c-9 -61 -30 -114 -45 -119 -11 -4 -13 6 -8 51 9 73 23 107 43 107 14 0 15 -7
10 -39z m492 7 c19 -19 14 -76 -7 -97 -46 -46 -53 -92 -19 -128 23 -25 66 -30
99 -12 11 5 28 8 37 5 17 -6 55 -73 47 -85 -2 -3 -19 -15 -39 -25 l-36 -19
-91 34 c-124 46 -125 49 -93 180 19 74 34 112 52 132 29 31 33 32 50 15z
m-158 -18 c18 -34 -23 -174 -65 -221 -19 -22 -35 -48 -35 -60 0 -52 48 -87 96
-69 20 8 44 3 121 -27 91 -36 97 -40 109 -77 17 -47 14 -52 -35 -67 -38 -11
-42 -10 -172 61 -74 40 -142 80 -151 88 -25 21 -22 64 7 137 13 34 34 102 45
150 11 48 23 92 26 96 10 16 43 9 54 -11z m-2556 -21 c14 -11 26 -30 26 -42 0
-11 9 -54 21 -96 18 -63 19 -81 10 -113 -13 -41 -26 -46 -57 -24 -16 12 -19
25 -17 87 3 63 0 76 -19 96 -33 36 -77 31 -116 -13 l-32 -35 -40 22 c-22 13
-40 29 -40 36 0 11 20 49 38 73 2 2 45 10 95 16 51 6 95 12 98 13 4 0 18 -8
33 -20z m2096 -17 c0 -13 -12 -22 -22 -16 -10 6 -1 24 13 24 5 0 9 -4 9 -8z
m1295 -46 c43 -56 43 -65 -1 -240 -34 -135 -47 -162 -85 -181 -27 -15 -38 -15
-73 -5 -63 19 -66 23 -49 83 11 38 25 61 54 85 35 30 39 39 39 78 0 25 -7 56
-16 69 -24 36 -10 74 44 122 26 22 48 40 48 40 1 -1 18 -24 39 -51z m-2810 34
c3 -5 1 -10 -4 -10 -6 0 -11 5 -11 10 0 6 2 10 4 10 3 0 8 -4 11 -10z m-980
-34 l38 -34 -21 -45 c-26 -56 -51 -65 -96 -37 -29 18 -35 28 -41 71 -4 28 -3
55 1 59 8 7 33 14 70 19 6 0 28 -14 49 -33z m4045 -6 c7 -17 24 -40 38 -50 23
-18 24 -24 18 -72 -23 -179 -164 -608 -207 -629 -8 -4 -40 -17 -71 -29 l-57
-21 -150 81 c-83 45 -151 86 -151 90 0 14 62 140 72 146 5 3 30 -2 54 -11 37
-14 48 -24 61 -57 12 -29 26 -44 51 -55 94 -39 170 54 131 161 -9 26 -7 44 11
101 12 39 32 122 45 185 13 63 29 116 36 119 7 2 28 19 48 37 45 41 55 42 71
4z m-1897 6 c21 -16 22 -30 1 -46 -13 -11 -19 -10 -36 7 -36 36 -6 70 35 39z
m-2359 -13 c16 -58 17 -103 2 -132 -9 -16 -16 -40 -16 -53 0 -31 34 -85 59
-93 13 -4 25 -21 32 -44 9 -31 8 -43 -5 -69 -9 -17 -16 -38 -16 -46 0 -25 -18
-27 -57 -6 -21 11 -43 20 -50 20 -7 0 -17 8 -22 19 -15 27 -57 176 -76 266
l-15 77 31 39 c28 36 35 39 79 39 38 0 50 -4 54 -17z m2666 -58 c0 -9 -6 -12
-15 -9 -8 4 -15 10 -15 15 0 5 7 9 15 9 8 0 15 -7 15 -15z m2690 -37 c23 -51
44 -77 88 -107 23 -16 32 -30 32 -49 0 -61 -65 -355 -111 -502 -33 -104 -40
-120 -59 -120 -9 0 -39 -11 -66 -25 -27 -14 -54 -25 -60 -25 -22 0 -219 79
-222 89 -2 6 11 59 30 117 32 105 34 107 74 124 98 43 123 155 53 234 l-30 35
12 68 c14 78 20 89 55 97 37 10 83 46 100 79 12 22 21 27 50 27 31 0 37 -4 54
-42z m-2592 10 c-5 -16 -48 -24 -48 -10 0 11 17 20 38 21 8 1 12 -5 10 -11z
m-3654 -45 c15 -18 43 -38 62 -45 49 -17 56 -51 18 -86 -26 -24 -40 -49 -57
-103 -9 -27 -138 -52 -152 -29 -4 6 -23 19 -44 30 -21 10 -41 26 -44 35 -16
40 -37 199 -28 208 11 11 192 36 207 28 6 -3 24 -20 38 -38z m2562 33 c7 -19
-13 -56 -30 -56 -8 0 -19 7 -26 15 -10 13 -10 19 5 35 21 23 43 26 51 6z m848
5 c3 -5 -4 -21 -15 -36 -28 -35 -50 -18 -25 19 17 27 31 33 40 17z m3366 -58
c23 -53 70 -107 113 -129 22 -12 27 -21 27 -52 0 -49 -42 -259 -86 -430 -55
-218 -191 -590 -257 -707 l-23 -40 -76 -5 c-60 -5 -84 -12 -117 -33 -22 -15
-45 -27 -51 -27 -14 0 -90 38 -245 125 -71 39 -190 104 -262 144 -73 40 -133
75 -133 79 0 3 21 49 46 101 26 53 55 114 65 137 9 23 22 45 27 48 11 7 211
-70 228 -88 6 -6 16 -30 22 -53 22 -75 117 -134 195 -119 76 14 137 82 137
154 0 33 -31 105 -50 117 -17 10 -12 37 32 187 23 79 57 223 77 322 l36 178
52 20 c37 13 65 34 95 68 38 44 47 49 85 50 41 0 43 -2 63 -47z m-4693 -24
c31 -53 42 -89 25 -89 -22 0 -98 123 -87 140 12 19 28 5 62 -51z m-2443 24 c3
-10 12 -62 21 -116 15 -87 15 -101 2 -115 -74 -85 -57 -191 39 -243 46 -24 50
-30 72 -97 l23 -72 -32 -39 c-21 -27 -33 -54 -36 -86 -4 -31 -12 -50 -27 -60
-29 -21 -46 -18 -90 15 -23 18 -56 32 -85 35 -25 4 -54 9 -63 11 -39 11 -191
600 -167 646 5 10 14 18 20 18 5 0 24 22 41 49 29 48 32 50 87 56 31 4 61 8
66 10 6 2 36 4 67 4 46 1 58 -2 62 -16z m1743 2 c24 -17 39 -71 29 -102 -6
-19 -64 -53 -90 -53 -14 0 -36 49 -36 80 0 16 13 46 33 78 11 16 38 15 64 -3z
m2164 -8 c41 -27 47 -57 20 -96 -32 -45 -57 -46 -104 -1 l-41 38 27 41 c31 47
50 51 98 18z m-1586 -35 c11 -18 48 -72 83 -119 34 -47 62 -94 62 -104 0 -26
-35 -59 -62 -59 -12 0 -38 17 -59 39 -57 61 -139 191 -139 222 0 66 79 80 115
21z m2629 2 c9 -8 19 -27 22 -40 8 -29 -14 -114 -31 -120 -23 -9 -86 26 -96
54 -19 48 -22 82 -9 82 6 0 23 9 37 20 31 24 56 25 77 4z m-3444 -24 c14 -11
30 -20 36 -20 12 0 44 -69 44 -95 0 -9 -15 -23 -34 -31 -31 -16 -36 -15 -85 7
-74 35 -88 85 -38 147 14 18 48 14 77 -8z m646 -77 c15 -27 45 -74 67 -106 22
-31 38 -59 36 -62 -3 -2 -25 2 -49 9 -40 11 -50 21 -87 82 -53 85 -57 124 -12
124 11 0 29 -19 45 -47z m465 24 c-13 -13 -26 -3 -16 12 3 6 11 8 17 5 6 -4 6
-10 -1 -17z m179 5 c35 -29 16 -48 -21 -21 -16 11 -27 25 -24 30 9 13 20 11
45 -9z m1281 7 c11 -5 24 -22 30 -36 8 -22 5 -33 -17 -65 -44 -62 -90 -76
-118 -36 -25 35 -19 64 22 108 41 43 52 46 83 29z m-334 -45 c-9 -9 -28 6 -21
18 4 6 10 6 17 -1 6 -6 8 -13 4 -17z m-1771 -4 c21 -8 43 -34 81 -99 70 -118
67 -140 -26 -216 -67 -57 -76 -60 -131 -49 -31 7 -32 8 -26 48 9 52 16 59 51
46 44 -17 94 4 111 46 25 60 -6 123 -72 144 -35 12 -52 44 -40 75 6 18 14 18
52 5z m589 -10 c8 -13 -20 -24 -41 -16 -20 8 -9 26 16 26 10 0 22 -5 25 -10z
m168 -25 c20 -14 37 -34 37 -44 0 -28 -43 -86 -67 -89 -32 -5 -83 36 -83 67 0
22 53 91 70 91 3 0 22 -11 43 -25z m1077 -25 c0 -25 -18 -36 -26 -16 -8 21 3
49 16 41 5 -3 10 -15 10 -25z m-648 0 c7 -11 20 -20 30 -20 29 0 45 -27 46
-78 2 -59 -14 -79 -44 -58 -19 14 -19 15 4 38 12 14 22 29 22 35 0 17 -74 63
-103 63 -29 0 -30 1 -21 24 9 23 51 20 66 -4z m1228 -63 c133 -76 146 -85 157
-120 15 -45 8 -64 -57 -145 -38 -49 -43 -52 -87 -52 -44 0 -50 4 -152 97 -134
122 -141 130 -141 160 0 47 82 140 125 142 6 0 75 -37 155 -82z m-2539 43 c16
-21 17 -31 8 -65 -6 -22 -14 -43 -18 -47 -13 -14 -86 20 -103 49 -26 42 -22
62 15 78 44 20 76 15 98 -15z m3029 -35 c17 -9 30 -20 30 -25 0 -22 -50 -121
-64 -126 -30 -12 -78 28 -92 76 -8 25 -14 46 -14 47 0 6 77 41 93 42 10 1 31
-6 47 -14z m-2015 -16 c-4 -5 -13 -9 -22 -9 -13 0 -13 3 -3 15 13 15 35 11 25
-6z m-1207 -36 c21 -38 22 -46 11 -90 -6 -26 -15 -52 -19 -56 -9 -11 -106 21
-121 39 -9 11 -8 26 5 68 13 41 24 56 49 69 42 21 48 18 75 -30z m2082 38 c0
-22 -123 -97 -140 -86 -19 12 -9 24 48 59 56 35 92 45 92 27z m188 -21 c34
-32 28 -63 -20 -105 -78 -66 -188 -135 -218 -135 -34 0 -60 23 -60 54 0 30 16
48 70 82 25 15 74 49 109 76 71 53 87 57 119 28z m2154 -9 c15 -6 38 -32 58
-68 l33 -58 -32 -97 c-18 -54 -37 -100 -42 -104 -10 -6 -172 50 -195 68 -7 5
-15 24 -18 42 -4 19 -18 50 -31 70 -38 56 -33 73 28 100 28 13 61 33 72 46 17
18 27 21 61 16 22 -3 52 -9 66 -15z m-3114 -10 c3 -8 -1 -12 -9 -9 -7 2 -15
10 -17 17 -3 8 1 12 9 9 7 -2 15 -10 17 -17z m472 9 c0 -5 -5 -10 -11 -10 -5
0 -7 5 -4 10 3 6 8 10 11 10 2 0 4 -4 4 -10z m-2999 -39 c15 -16 47 -35 70
-42 40 -13 43 -17 71 -93 16 -44 28 -89 26 -99 -2 -14 -26 -30 -83 -54 -44
-18 -83 -33 -88 -33 -5 0 -22 9 -38 20 -28 21 -59 33 -111 44 -23 5 -30 16
-49 75 l-22 69 21 29 c11 16 24 41 27 56 6 21 16 29 49 37 22 6 46 13 51 15
27 10 49 2 76 -24z m1889 -52 c0 -21 -26 -54 -111 -146 -61 -65 -118 -122
-125 -126 -8 -5 -29 -7 -47 -5 -30 3 -32 5 -35 49 -3 46 -3 46 66 102 59 48
75 57 109 57 26 0 50 8 67 21 22 17 26 28 26 71 l0 51 25 -23 c15 -14 25 -35
25 -51z m281 44 c62 -44 64 -92 5 -121 -25 -13 -31 -11 -67 14 -62 43 -74 79
-39 114 27 27 54 25 101 -7z m449 17 c0 -5 -4 -10 -10 -10 -5 0 -10 5 -10 10
0 6 5 10 10 10 6 0 10 -4 10 -10z m290 0 c0 -5 -7 -10 -15 -10 -8 0 -15 5 -15
10 0 6 7 10 15 10 8 0 15 -4 15 -10z m-522 -29 c3 -16 -1 -22 -10 -19 -7 3
-15 15 -16 27 -3 16 1 22 10 19 7 -3 15 -15 16 -27z m662 -42 c0 -14 -31 -26
-97 -40 -106 -22 -94 19 12 44 60 13 85 12 85 -4z m-2125 2 c3 -5 19 -12 35
-16 47 -10 63 -42 49 -98 -10 -37 -10 -52 2 -83 17 -45 69 -84 110 -84 20 0
35 -10 53 -33 35 -45 33 -60 -12 -91 -88 -60 -124 -32 -257 198 l-57 100 16
33 c9 19 16 42 16 52 0 29 31 44 45 22z m1664 -14 c14 -7 24 -16 23 -22 -7
-24 -151 6 -160 34 -4 12 6 13 53 7 32 -4 70 -12 84 -19z m216 -17 c22 -25 18
-30 -29 -32 -47 -2 -57 9 -27 33 29 24 34 24 56 -1z m932 -92 c65 -61 122
-118 126 -125 5 -7 7 -28 5 -46 -3 -30 -5 -32 -49 -35 -45 -3 -46 -2 -102 65
-50 59 -57 73 -57 111 0 61 -32 92 -96 92 -46 0 -47 0 -30 19 16 18 35 25 73
30 6 0 65 -49 130 -111z m-1314 43 c45 -15 100 -31 122 -35 21 -4 52 -19 68
-32 32 -27 73 -31 102 -10 11 8 56 17 100 21 44 4 117 16 163 27 93 22 128 18
143 -15 20 -44 -3 -74 -74 -96 -136 -42 -290 -52 -329 -22 -37 30 -73 35 -109
17 -55 -27 -122 -15 -90 17 15 15 14 44 -1 50 -24 8 -38 -5 -38 -34 0 -36 -8
-36 -102 -3 -78 27 -108 52 -108 90 0 23 33 54 58 54 7 0 50 -13 95 -29z
m1893 8 c19 -11 34 -28 34 -38 0 -34 -174 -270 -199 -271 -8 0 -28 12 -43 27
-23 22 -28 35 -28 74 0 42 7 58 53 123 41 60 60 78 92 89 55 20 53 20 91 -4z
m-2260 -39 c77 -58 78 -69 3 -202 -100 -180 -105 -186 -145 -197 -43 -12 -64
-3 -142 59 -50 39 -52 43 -52 88 0 46 2 49 116 170 134 141 139 143 220 82z
m1439 13 c-3 -10 -9 -31 -12 -47 -5 -21 -23 -39 -75 -73 -76 -49 -121 -55
-126 -17 -2 17 11 30 65 62 37 22 84 52 103 66 42 30 55 32 45 9z m-2785 -23
c60 -21 63 -24 119 -121 29 -52 76 -126 102 -166 30 -43 46 -78 43 -87 -11
-28 6 -83 33 -110 20 -21 35 -26 73 -26 42 0 52 4 74 31 16 19 26 43 26 62 0
34 51 97 79 97 21 0 111 -90 111 -111 0 -10 -51 -72 -112 -138 l-113 -121 -71
0 -72 0 -59 68 c-89 100 -191 242 -272 377 -75 126 -77 132 -51 205 7 19 15
41 17 49 3 13 9 13 73 -9z m600 -14 l45 -13 0 -48 c1 -49 -7 -63 -53 -93 -24
-15 -25 -15 -49 13 -21 26 -23 37 -17 85 9 79 6 77 74 56z m3295 -101 c142
-80 143 -81 164 -168 l11 -48 -69 -97 c-38 -53 -77 -104 -87 -113 -11 -10 -46
-19 -84 -22 l-66 -6 -127 116 c-70 63 -127 118 -127 122 0 3 28 40 61 81 33
41 81 108 107 148 34 53 51 72 63 69 10 -3 79 -39 154 -82z m-4208 4 c7 -7 33
-17 60 -24 48 -12 48 -12 117 -131 85 -148 179 -281 284 -401 78 -90 80 -94
75 -135 -3 -24 -9 -46 -12 -51 -4 -4 -32 -8 -62 -10 l-54 -2 0 80 c0 51 -5 91
-15 110 -22 43 -84 75 -147 75 -66 0 -79 17 -57 79 18 53 9 131 -18 160 -27
30 -92 61 -126 61 -36 0 -53 18 -92 103 -26 55 -30 70 -20 82 15 18 51 20 67
4z m1920 -20 c26 -11 95 -33 153 -47 90 -23 105 -30 108 -49 6 -39 -28 -46
-119 -23 -63 15 -91 28 -120 55 -22 19 -48 35 -60 35 -53 0 -86 -47 -68 -97 8
-24 3 -44 -29 -122 -35 -88 -40 -95 -76 -107 -21 -8 -41 -12 -45 -9 -4 2 -13
21 -20 42 -13 38 -12 40 59 173 40 74 81 143 92 153 27 23 66 22 125 -4z
m1264 11 c9 0 43 -32 74 -70 56 -68 57 -71 51 -115 -7 -43 -9 -45 -40 -45 -18
0 -40 6 -50 13 -14 10 -15 17 -6 41 13 36 -3 91 -32 107 -30 16 -85 13 -114
-6 -14 -9 -33 -33 -41 -53 -17 -42 -29 -52 -61 -52 -30 0 -37 22 -18 58 19 37
172 134 201 127 11 -3 27 -5 36 -5z m1934 -41 c44 -18 86 -38 94 -45 11 -10 4
-33 -46 -141 -39 -86 -65 -129 -77 -131 -17 -4 -114 42 -168 80 -23 16 -28 27
-28 61 0 25 -9 56 -20 75 -29 47 -20 65 42 80 29 7 62 21 72 32 27 26 37 26
131 -11z m-2355 -4 c23 -27 3 -51 -58 -68 -118 -34 -127 -35 -162 -20 -88 37
-155 -44 -96 -114 20 -23 27 -48 35 -122 l10 -93 -32 -39 c-27 -33 -38 -39
-72 -39 -44 0 -65 -14 -65 -42 0 -23 30 -38 77 -38 30 0 46 -8 79 -37 l40 -38
13 -137 13 -138 -26 -31 c-66 -78 4 -186 106 -163 18 3 46 22 63 40 26 28 43
35 110 49 44 9 127 30 184 47 l103 30 38 -21 c21 -11 47 -21 58 -21 31 0 36
-17 13 -48 -11 -16 -23 -41 -27 -56 -9 -37 -32 -49 -159 -85 -212 -58 -429
-91 -607 -91 l-98 0 -50 52 c-50 51 -59 68 -40 68 6 0 30 18 53 39 24 22 55
41 71 43 62 7 59 66 -4 79 -18 4 -37 14 -42 23 -5 9 -22 28 -39 44 l-30 28 52
42 c28 23 62 42 74 42 25 0 39 23 30 51 -4 12 -16 19 -30 19 -15 0 -37 13 -56
35 -54 59 -148 66 -194 15 -11 -12 -31 -20 -51 -20 -26 0 -39 7 -60 35 -23 31
-25 39 -16 61 7 13 22 28 34 33 64 25 86 115 40 164 -29 31 -23 60 17 77 35
14 77 4 114 -27 35 -28 56 -29 107 -3 22 11 50 20 64 20 16 0 27 7 31 20 9 28
-10 48 -47 52 -43 4 -58 31 -33 58 11 12 34 28 52 35 18 8 33 21 33 29 0 18
-27 46 -45 46 -17 0 -30 39 -17 52 5 5 59 14 118 19 60 5 150 20 199 33 113
29 110 29 125 11z m-2891 -92 l42 -88 -20 -45 c-11 -25 -21 -62 -21 -82 0 -31
-5 -40 -36 -59 l-36 -22 -44 22 c-25 12 -64 21 -89 21 -42 0 -46 3 -70 43 -31
54 -31 57 0 103 14 20 25 51 25 68 0 45 15 60 95 94 105 46 104 46 154 -55z
m1227 52 c6 -2 12 -24 12 -49 1 -35 -5 -52 -24 -76 -14 -16 -32 -30 -39 -30
-14 0 -105 94 -105 109 0 5 15 21 33 35 31 24 68 28 123 11z m2553 -91 c17
-14 31 -31 31 -37 0 -15 -91 -107 -107 -107 -6 0 -23 15 -37 33 -21 27 -24 39
-19 77 7 52 11 56 63 58 28 1 47 -5 69 -24z m-1597 -25 c83 -20 100 -27 119
-53 l22 -29 -22 -18 c-17 -14 -28 -16 -54 -8 -17 5 -34 14 -35 19 -5 14 -57
40 -80 40 -11 0 -32 -10 -47 -21 -28 -23 -30 -43 -10 -121 6 -24 3 -29 -35
-47 -24 -11 -45 -19 -49 -17 -3 3 -15 20 -25 40 l-19 35 35 93 c26 66 43 97
59 105 13 7 29 11 34 9 6 -3 54 -15 107 -27z m767 20 c36 -13 39 -31 10 -60
-18 -18 -28 -20 -85 -13 -59 6 -67 4 -90 -17 -35 -33 -33 -82 6 -110 42 -31
44 -47 14 -91 -15 -21 -29 -38 -31 -38 -6 0 -68 44 -75 55 -4 5 -10 43 -13 85
-4 41 -9 82 -11 91 -9 33 29 59 121 83 110 28 114 29 154 15z m315 -85 c-4
-46 -21 -78 -48 -95 -45 -28 -64 -24 -83 16 -34 71 13 123 90 100 23 -7 42
-16 41 -21z m-1784 -30 c52 -36 80 -62 80 -74 0 -11 5 -30 11 -44 10 -20 8
-31 -11 -60 -12 -20 -30 -36 -40 -36 -34 0 -270 178 -270 204 0 5 12 23 27 38
22 23 35 28 75 28 43 0 58 -7 128 -56z m3235 0 l17 -46 -66 -97 c-111 -161
-116 -165 -172 -162 -27 1 -52 5 -56 9 -3 4 -9 27 -13 52 -6 43 -3 48 47 115
29 39 70 94 90 123 37 50 39 52 87 52 48 0 48 0 66 -46z m-5252 -4 c32 -18 68
-30 89 -30 39 0 54 -14 81 -72 16 -37 16 -39 -8 -84 -30 -56 -32 -113 -6 -169
32 -69 93 -105 180 -105 l51 0 56 -75 c66 -88 69 -78 -54 -176 l-72 -58 -83 6
c-67 4 -85 9 -100 27 -61 74 -236 357 -303 487 l-25 51 26 34 c29 38 55 104
55 140 0 19 33 50 58 54 1 0 26 -13 55 -30z m4555 -102 l122 -113 0 -72 0 -72
-77 -67 c-114 -99 -222 -177 -362 -260 -128 -76 -147 -82 -184 -62 -12 6 -35
14 -52 18 -33 7 -36 21 -15 80 22 60 25 64 116 116 49 28 124 73 166 101 56
37 83 49 102 46 34 -7 93 14 111 40 8 12 15 41 15 65 0 57 -41 102 -94 102
-27 0 -42 8 -65 33 -17 17 -31 39 -31 47 0 20 90 110 110 110 9 0 71 -51 138
-112z m-415 61 c34 -37 34 -43 -3 -69 -26 -18 -38 -20 -85 -15 -30 4 -58 11
-61 16 -5 8 -1 26 21 96 3 9 19 11 52 7 35 -4 55 -14 76 -35z m-577 13 c14 -9
44 -67 44 -85 0 -17 -41 -37 -75 -37 -39 0 -95 31 -95 53 0 28 19 57 43 67 27
11 68 12 83 2z m2044 -83 c50 -28 90 -57 90 -64 0 -36 -331 -491 -365 -502 -6
-2 -46 29 -89 68 l-78 72 7 43 c3 24 1 61 -5 83 l-10 40 89 123 c118 161 114
158 159 158 20 0 48 7 62 14 38 21 43 20 140 -35z m-3759 -67 c46 -35 103 -75
127 -89 23 -14 42 -31 42 -38 0 -15 -145 -274 -165 -294 -7 -7 -30 -17 -52
-21 -21 -5 -47 -11 -59 -15 -21 -7 -129 60 -212 130 -36 31 -40 40 -40 80 0
24 -3 53 -7 65 -7 21 21 56 178 224 l55 59 25 -19 c13 -10 61 -47 108 -82z
m2037 41 c18 -3 35 -9 38 -14 7 -12 -26 -106 -43 -120 -11 -10 -25 -9 -67 4
-43 14 -55 23 -69 53 -10 19 -14 40 -11 46 11 17 88 48 104 42 8 -3 30 -8 48
-11z m-1576 -67 c22 -45 20 -75 -5 -110 -14 -19 -15 -19 -71 4 -78 33 -85 43
-61 88 18 32 57 54 108 61 4 1 17 -19 29 -43z m1962 6 c60 -87 25 -131 -211
-266 l-81 -47 -59 20 c-62 21 -63 23 -40 86 21 57 43 69 100 54 37 -10 52 -10
83 2 44 17 84 69 84 110 0 19 10 35 33 53 43 35 60 33 91 -12z m-3642 12 c17
-9 50 -16 74 -17 59 0 81 -23 65 -68 -6 -18 -11 -56 -11 -85 l0 -54 -76 -62
c-42 -35 -83 -63 -90 -63 -21 0 -116 136 -108 154 25 59 35 100 30 129 -4 28
-1 35 32 57 43 30 44 30 84 9z m-1116 -5 c13 -22 90 -49 141 -49 l52 0 52 -97
c66 -124 174 -300 243 -396 29 -40 56 -79 60 -85 4 -6 0 -36 -9 -66 -21 -71
-8 -122 40 -165 111 -97 293 -2 283 149 l-3 44 93 78 c50 43 96 78 100 78 4 0
54 -50 111 -111 95 -101 103 -112 92 -132 -7 -12 -117 -132 -245 -267 -210
-221 -236 -245 -262 -242 -82 8 -152 4 -187 -11 l-38 -16 -63 67 c-134 141
-293 345 -421 541 -86 131 -245 409 -245 428 0 5 15 30 34 54 31 39 44 74 61
161 3 17 14 30 32 36 38 14 70 14 79 1z m4150 -53 c16 -31 15 -36 -7 -85 -30
-65 -71 -83 -122 -54 -39 23 -45 54 -18 92 12 16 21 34 21 39 0 11 66 41 93
41 10 1 24 -13 33 -33z m2457 -157 c166 -94 308 -178 315 -187 6 -9 12 -36 12
-61 0 -44 22 -103 55 -147 15 -21 12 -27 -54 -125 -38 -57 -107 -153 -153
-214 -72 -94 -88 -109 -109 -106 -30 4 -184 4 -221 -1 -23 -2 -58 25 -230 182
-309 282 -325 297 -313 314 6 7 50 63 98 122 49 60 124 163 167 229 106 161
109 165 121 165 5 0 146 -77 312 -171z m-3585 115 c26 -42 28 -67 6 -88 -23
-24 -61 -30 -104 -17 -55 16 -62 29 -41 77 14 30 27 43 52 51 53 17 62 15 87
-23z m839 -35 c54 -26 64 -55 32 -98 -17 -23 -33 -32 -65 -37 -58 -8 -70 -2
-78 40 -6 31 -2 42 25 76 18 22 35 40 38 40 2 0 24 -9 48 -21z m-1187 -62 c36
-18 66 -39 68 -47 1 -9 -4 -33 -13 -53 -11 -28 -26 -41 -54 -53 -27 -11 -45
-26 -56 -50 -44 -94 50 -172 159 -133 26 9 44 7 101 -11 39 -12 122 -32 185
-45 64 -13 116 -29 119 -36 2 -7 21 -31 43 -55 l39 -42 -45 -26 c-24 -14 -47
-33 -50 -42 -5 -14 -16 -15 -65 -10 -120 14 -385 91 -551 161 -81 34 -86 38
-94 78 -3 17 -13 46 -22 63 l-17 30 83 152 c46 84 88 152 94 151 6 0 40 -15
76 -32z m-3231 -67 c54 -37 99 -50 173 -50 l56 0 55 -104 c164 -310 358 -587
601 -860 53 -59 96 -110 96 -112 0 -3 -7 -19 -16 -35 -26 -52 -35 -133 -19
-186 8 -25 11 -51 8 -57 -4 -6 -75 -83 -157 -171 -245 -260 -218 -236 -257
-225 -79 23 -216 1 -281 -44 -12 -9 -30 -16 -40 -16 -37 0 -391 424 -560 670
-161 235 -388 628 -388 671 0 6 24 36 54 65 60 60 106 141 106 188 0 67 10 73
270 187 135 59 247 107 250 108 3 0 25 -13 49 -29z m5865 15 c20 -4 25 -13 31
-56 4 -27 4 -53 0 -57 -4 -4 -41 -7 -83 -7 -49 0 -88 -6 -107 -15 -43 -22 -75
-84 -75 -146 0 -69 -14 -80 -78 -60 -62 18 -129 11 -160 -18 -32 -29 -62 -89
-62 -125 0 -38 -12 -49 -98 -90 -59 -29 -73 -32 -86 -21 -21 17 -20 38 4 85
11 22 20 50 20 62 0 17 12 30 43 48 262 154 379 235 511 355 53 48 72 59 91
55 14 -3 36 -7 49 -10z m-2409 -36 c31 -8 52 -22 75 -50 28 -35 35 -39 78 -39
27 0 57 7 70 16 35 24 74 10 121 -46 l42 -49 -28 -17 c-16 -10 -38 -26 -50
-37 -26 -23 -61 -20 -217 19 -138 35 -163 47 -182 88 -16 33 -16 38 0 80 19
50 24 52 91 35z m1302 -11 c54 -22 64 -37 39 -57 -8 -7 -18 -26 -21 -42 -4
-16 -15 -33 -25 -39 -26 -14 -177 -56 -265 -75 -75 -15 -77 -15 -108 7 -44 30
-47 36 -47 90 l0 47 56 11 c46 10 61 9 89 -4 58 -28 90 -21 138 28 23 24 51
46 62 49 11 2 22 5 25 6 2 0 28 -9 57 -21z m-2790 -16 c86 -5 98 -15 84 -69
-7 -27 -7 -50 0 -77 10 -35 8 -41 -18 -70 -75 -84 -118 -126 -129 -126 -12 0
-180 175 -196 203 -9 18 -3 25 81 96 51 42 80 59 90 55 9 -4 48 -9 88 -12z
m559 -90 c27 -21 82 -61 122 -90 l72 -52 0 -49 c0 -48 0 -48 -46 -66 l-46 -17
-97 66 c-54 37 -113 81 -133 99 -33 30 -34 35 -29 82 5 45 9 50 36 56 57 12
71 9 121 -29z m3565 -32 l40 11 76 -67 c41 -37 78 -74 81 -83 4 -10 -25 -44
-89 -104 -52 -49 -102 -93 -112 -98 -19 -11 -43 11 -118 107 -35 45 -38 55
-29 78 5 15 10 54 10 86 0 69 14 83 66 68 22 -6 48 -5 75 2z m-3713 -188 c42
-32 100 -73 127 -92 64 -42 75 -56 75 -98 0 -19 8 -50 17 -70 17 -35 17 -36
-16 -96 -56 -102 -72 -126 -85 -126 -31 0 -336 216 -471 334 l-40 34 30 34
c115 128 116 129 165 123 25 -3 59 -1 75 4 17 5 34 10 38 10 5 1 43 -25 85
-57z m3415 -59 l69 -5 61 -75 c34 -41 63 -80 65 -87 2 -10 -87 -82 -135 -110
-7 -4 -27 1 -44 10 -18 9 -57 17 -88 19 -52 2 -57 5 -80 39 -23 35 -23 37 -8
74 9 20 18 56 20 79 5 53 23 77 51 68 12 -4 52 -9 89 -12z m858 -229 c214
-202 260 -250 255 -268 -16 -69 -16 -98 -1 -161 l17 -67 -43 -45 c-119 -122
-402 -340 -618 -477 -108 -68 -356 -206 -371 -206 -4 0 -27 15 -51 34 -39 31
-73 44 -161 61 -21 4 -30 14 -39 46 -10 32 -10 44 -1 57 32 44 52 101 52 149
l0 51 97 53 c136 73 262 150 372 228 52 36 101 70 108 74 7 4 35 0 63 -9 42
-14 58 -15 89 -5 104 31 147 128 102 227 -31 68 -108 112 -175 101 -18 -3 -37
-2 -42 1 -16 12 -154 180 -154 188 0 12 214 213 227 214 7 0 130 -111 274
-246z m1518 124 c289 -162 267 -144 273 -222 7 -77 32 -134 93 -205 39 -46 44
-55 33 -74 -23 -44 -134 -205 -217 -316 -185 -247 -177 -239 -218 -218 -44 23
-137 47 -179 47 -21 0 -64 -7 -96 -16 l-58 -17 -39 34 c-92 79 -357 323 -364
336 -5 9 -4 34 2 59 14 54 6 114 -25 179 l-23 50 57 73 c76 100 157 212 214
298 l47 72 83 -5 c73 -4 89 -1 133 21 28 13 54 25 59 25 5 1 107 -54 225 -121z
m-5085 58 c142 -61 312 -113 472 -146 l134 -27 29 -45 c29 -45 84 -78 132 -78
35 0 93 30 125 64 l30 33 165 6 c228 9 406 39 614 102 l110 34 36 -25 c19 -13
46 -24 59 -24 28 0 60 -27 60 -51 0 -13 -22 -26 -80 -48 -43 -17 -84 -31 -90
-31 -6 0 -26 11 -44 25 -46 35 -126 51 -163 32 -36 -20 -89 -76 -98 -105 -3
-12 -16 -27 -27 -33 -17 -9 -25 -6 -52 20 -37 35 -93 61 -136 61 -48 0 -118
-50 -145 -104 -9 -18 -23 -22 -92 -29 -87 -9 -103 -21 -88 -67 6 -18 15 -20
87 -20 l81 0 35 -41 c20 -23 50 -48 68 -55 38 -16 33 9 69 -319 31 -276 31
-280 0 -301 -50 -33 -79 -135 -56 -197 17 -45 71 -96 112 -107 75 -21 166 25
189 95 13 40 3 36 190 74 123 26 300 74 453 122 36 12 39 11 70 -18 41 -40 81
-59 138 -67 36 -5 49 -12 58 -32 17 -39 13 -62 -18 -102 -34 -44 -51 -91 -51
-143 0 -45 -1 -46 -130 -89 -378 -125 -845 -200 -1245 -200 l-142 0 -34 68
c-27 52 -44 74 -81 97 -46 29 -48 31 -45 75 2 42 5 46 42 63 53 25 89 60 110
108 18 39 18 39 75 39 62 0 80 11 80 50 0 42 -15 53 -75 58 -55 4 -57 6 -72
44 -9 22 -39 60 -70 87 -45 41 -54 54 -51 77 2 21 12 33 33 43 39 18 83 59
101 94 12 23 21 27 55 27 55 0 79 15 79 48 0 39 -17 52 -66 52 -38 0 -43 3
-72 49 -46 75 -122 107 -208 89 -37 -8 -58 -22 -95 -59 l-47 -48 -67 11 c-57
10 -69 15 -78 37 -6 14 -22 41 -35 58 -25 34 -25 34 -1 125 8 32 16 39 49 49
76 23 127 108 110 184 -11 49 -34 81 -80 111 -34 23 -46 25 -88 19 -44 -6 -69
-17 -124 -57 -25 -18 -50 0 -61 43 -11 44 -50 95 -86 114 -36 18 -101 12 -164
-17 -57 -26 -65 -20 -73 49 l-6 50 38 20 c22 11 40 21 42 22 1 0 49 -19 106
-43z m-4346 -81 c71 -47 117 -57 245 -53 l118 3 46 -85 c24 -47 54 -103 66
-125 195 -364 477 -758 780 -1087 48 -52 87 -99 87 -103 0 -4 -16 -39 -35 -79
-20 -40 -40 -98 -44 -131 -8 -55 0 -152 13 -174 8 -12 -26 -54 -153 -186 -59
-60 -203 -213 -321 -339 -895 -954 -960 -1021 -984 -1020 -11 1 -52 14 -91 30
-88 34 -200 38 -285 10 l-54 -19 -73 79 c-79 85 -79 83 -47 164 27 70 23 188
-11 275 -14 39 -29 77 -31 86 -4 11 111 113 411 363 229 191 422 349 429 352
7 3 30 -6 51 -20 50 -35 126 -56 195 -56 71 0 112 14 173 57 40 30 55 51 102
146 59 121 74 174 75 252 0 74 -15 117 -60 168 -76 86 -195 107 -370 63 -58
-14 -112 -26 -120 -26 -18 1 -44 36 -177 235 -142 214 -243 384 -373 628 -73
138 -74 126 25 237 74 82 115 158 123 226 2 24 10 48 17 54 16 13 206 98 223
99 7 1 29 -10 50 -24z m3265 -84 c100 -84 290 -221 375 -269 34 -20 62 -42 62
-50 0 -11 -277 -509 -337 -604 -22 -36 -26 -38 -76 -38 -50 0 -106 -20 -153
-55 -21 -15 -27 -12 -140 64 -66 44 -163 115 -217 157 -93 71 -98 77 -90 102
7 25 8 153 1 214 -3 23 32 65 235 287 132 144 243 261 248 261 6 0 47 -31 92
-69z m3418 9 c24 -11 61 -20 81 -20 31 0 40 -5 59 -36 l22 -36 -22 -44 c-11
-25 -21 -62 -21 -84 0 -43 -21 -70 -72 -91 -24 -10 -34 -10 -47 -1 -29 22 -80
42 -104 42 -13 0 -30 6 -39 13 -18 13 -78 149 -78 176 0 11 29 31 83 58 45 23
85 42 88 42 4 1 26 -8 50 -19z m-2534 -48 c6 -4 14 -24 18 -45 4 -21 18 -53
31 -73 13 -19 24 -41 24 -49 0 -21 -60 -168 -75 -184 -11 -12 -33 -5 -142 46
-86 39 -129 65 -131 77 -4 17 42 114 80 169 16 22 27 27 61 27 24 0 55 8 72
19 33 22 45 24 62 13z m3251 -93 c35 -41 67 -81 72 -89 4 -9 6 -53 3 -99 l-6
-83 -161 -106 c-89 -59 -214 -136 -279 -171 l-118 -64 -27 22 c-37 29 -89 52
-135 59 -29 4 -41 12 -53 34 -15 28 -14 32 10 69 15 21 30 62 34 91 7 51 9 54
58 80 l50 27 49 -24 c73 -38 161 -28 219 23 31 28 56 93 56 149 l0 52 73 55
c39 31 77 54 82 53 6 -2 38 -37 73 -78z m-1002 -63 c19 -44 34 -84 34 -89 0
-5 -9 -22 -20 -38 -21 -28 -33 -59 -44 -111 -5 -23 -16 -30 -75 -49 l-69 -22
-29 21 c-16 11 -41 24 -56 27 -20 5 -29 16 -37 44 -25 92 -24 100 5 129 15 16
35 47 44 71 15 41 20 45 91 72 110 41 115 39 156 -55z m-1889 12 c6 -7 13 -25
17 -40 3 -15 20 -44 37 -63 28 -31 31 -40 25 -75 -10 -65 -24 -88 -63 -110
-21 -11 -46 -26 -55 -32 -14 -10 -36 -6 -117 20 -55 18 -103 38 -107 43 -6 10
50 171 67 194 5 6 30 17 58 24 27 7 57 21 67 32 19 22 57 25 71 7z m1354 -92
c18 -21 61 -44 110 -59 16 -5 39 -74 39 -116 0 -19 -33 -78 -63 -112 -18 -21
-204 -56 -219 -41 -5 5 -15 54 -22 108 l-13 98 38 34 c20 19 43 48 50 65 22
54 47 61 80 23z m-1910 -163 c47 -22 95 -44 107 -47 45 -15 45 -28 1 -137 -22
-57 -45 -109 -50 -115 -5 -7 -25 -15 -44 -18 -78 -15 -143 -110 -130 -191 19
-130 149 -185 254 -108 l42 31 73 -24 c121 -38 264 -74 431 -107 l157 -32 20
-53 c14 -37 34 -64 69 -95 44 -38 49 -46 49 -84 0 -41 -2 -43 -47 -63 -53 -23
-107 -70 -129 -112 -19 -36 -48 -36 -220 -3 -318 63 -653 170 -926 297 l-88
41 0 64 c0 64 -18 123 -47 155 -21 23 -14 44 58 173 34 61 104 189 156 285 52
96 101 183 110 192 16 18 3 23 154 -49z m373 -147 c92 -31 100 -36 117 -71 26
-54 47 -74 90 -86 51 -16 103 -4 143 32 l35 30 68 -12 c75 -14 93 -23 93 -48
0 -24 44 -81 80 -104 24 -15 30 -26 30 -53 0 -31 -4 -37 -42 -54 -50 -22 -75
-43 -106 -87 -17 -24 -31 -33 -52 -33 -56 0 -308 56 -480 106 -136 40 -138 41
-145 85 -4 21 -15 49 -26 63 -25 32 -25 39 15 142 18 49 36 97 39 107 9 24 27
21 141 -17z m2102 3 c24 -27 74 -49 112 -49 32 0 45 -12 56 -47 5 -17 -1 -35
-23 -65 -16 -24 -33 -61 -36 -83 -13 -87 -6 -80 -127 -118 -135 -42 -275 -78
-417 -107 l-104 -20 -31 33 c-17 19 -46 42 -63 51 -18 9 -33 22 -33 29 -1 6
-7 59 -14 115 -10 82 -10 106 0 116 6 7 60 20 119 30 93 15 109 15 124 3 84
-74 190 -57 241 39 24 43 32 50 91 70 81 28 82 28 105 3z m1909 -50 c38 -17
61 -20 119 -17 39 3 79 8 88 12 13 6 57 -30 185 -151 269 -253 245 -226 232
-262 -7 -19 -10 -66 -7 -111 4 -62 11 -92 36 -143 18 -35 32 -69 32 -74 0 -13
-202 -193 -354 -316 -148 -119 -415 -307 -573 -403 -143 -86 -396 -224 -412
-224 -6 0 -37 25 -69 57 -63 62 -133 100 -204 109 -26 4 -52 12 -57 18 -5 6
-46 95 -90 196 -43 102 -91 212 -106 244 -26 59 -26 60 -7 85 42 57 55 96 58
171 l3 75 123 68 c329 180 577 355 841 591 60 53 110 96 111 96 2 0 25 -9 51
-21z m-5594 -302 c57 -43 148 -108 201 -144 l97 -66 -6 -77 c-5 -69 -3 -82 22
-138 l28 -62 -58 -102 c-32 -57 -87 -155 -123 -218 -95 -170 -95 -170 -147
-170 -77 0 -148 -33 -256 -121 l-27 -21 -103 68 c-124 80 -355 252 -416 309
l-43 40 25 62 c31 75 41 163 25 223 -6 25 -14 54 -16 65 -4 16 36 66 179 220
153 167 188 199 208 197 83 -11 156 -4 209 20 51 23 56 24 77 9 11 -9 68 -51
124 -94z m796 -478 c346 -155 689 -262 1028 -320 72 -12 135 -26 142 -31 6 -5
15 -24 19 -41 25 -116 120 -196 232 -197 89 0 164 51 213 146 l25 49 215 7
c202 6 423 25 569 49 221 36 522 110 706 173 l72 24 33 -35 c49 -50 112 -84
171 -92 l52 -6 103 -245 c56 -135 102 -254 103 -266 0 -11 -10 -29 -21 -40
-12 -10 -33 -44 -47 -74 -20 -45 -25 -72 -27 -148 -1 -51 -6 -96 -11 -102 -17
-17 -352 -119 -539 -165 -338 -82 -627 -123 -1005 -145 -226 -13 -376 -13
-400 0 -11 6 -22 26 -26 48 -20 113 -109 225 -204 257 -54 18 -130 10 -195
-21 -49 -23 -107 -90 -145 -167 -22 -45 -39 -67 -50 -67 -28 0 -333 58 -450
86 -324 76 -777 233 -1020 352 l-75 37 0 120 c0 124 -8 155 -60 235 -17 25
-15 29 106 250 67 124 129 233 137 243 11 12 30 17 69 17 59 0 116 24 171 71
18 16 34 29 36 29 2 0 35 -14 73 -31z m5701 -136 c72 -36 83 -38 172 -38 52 0
107 4 121 8 24 8 38 -3 160 -120 74 -71 202 -192 285 -268 82 -77 310 -291
505 -476 195 -184 410 -388 479 -453 69 -64 126 -124 128 -132 2 -8 -6 -33
-17 -57 -53 -111 -62 -223 -25 -332 l17 -49 -79 -74 c-85 -79 -83 -78 -164
-46 -71 28 -188 23 -275 -10 -38 -15 -77 -30 -86 -32 -11 -4 -113 111 -363
411 -191 229 -349 422 -352 430 -3 7 6 31 21 53 35 53 55 123 55 192 0 71 -14
112 -58 173 -30 42 -51 56 -157 108 -112 55 -131 61 -204 66 -107 8 -160 -8
-215 -62 -79 -80 -95 -193 -51 -370 14 -55 25 -107 25 -115 -1 -29 -385 -285
-665 -442 -136 -77 -312 -168 -323 -168 -6 0 -46 31 -89 70 -91 81 -170 126
-245 140 -29 6 -58 17 -64 24 -5 8 -30 60 -54 116 l-44 102 18 32 c60 100 61
104 61 246 l1 135 114 60 c442 232 810 490 1175 824 55 50 104 91 108 91 5 0
43 -17 85 -37z"/>
<path d="M7489 11133 c-14 -38 -8 -58 21 -58 28 0 57 42 47 68 -11 28 -56 21
-68 -10z"/>
<path d="M1647 7553 c-4 -3 -7 -17 -7 -30 0 -43 82 -58 88 -16 5 33 -59 69
-81 46z"/>
<path d="M11074 5305 c-15 -37 41 -80 71 -55 23 19 18 49 -11 60 -36 14 -54
12 -60 -5z"/>
<path d="M5255 1706 c-22 -33 -12 -66 21 -66 26 0 48 37 42 69 -5 27 -45 25
-63 -3z"/>
<path d="M2180 12738 c-35 -88 -34 -193 2 -263 109 -209 404 -236 603 -54 90
83 148 235 128 334 l-9 40 -350 3 -349 2 -25 -62z"/>
<path d="M5420 12792 c0 -12 140 -146 165 -159 11 -6 41 -14 67 -17 85 -13
147 28 214 142 l25 42 -235 0 c-130 0 -236 -4 -236 -8z"/>
<path d="M7582 12789 c2 -7 89 -31 193 -54 304 -68 706 -183 731 -208 6 -7 21
-52 34 -100 40 -153 98 -218 195 -216 57 1 87 11 167 57 94 55 148 130 148
208 0 48 -32 123 -72 169 l-42 47 17 48 c9 26 17 50 17 54 0 3 -31 6 -69 6
-66 0 -71 -1 -83 -27 -8 -18 -22 -29 -38 -31 -85 -10 -134 -26 -177 -59 l-46
-35 -146 45 c-80 26 -182 56 -226 68 -44 11 -84 25 -89 30 -15 14 -519 12
-514 -2z"/>
<path d="M12537 10639 c-307 -72 -316 -534 -14 -703 69 -39 167 -59 232 -48
l40 7 3 350 2 350 -42 17 c-89 36 -152 43 -221 27z"/>
<path d="M249 9034 c-25 -7 -67 -33 -94 -56 l-47 -42 -48 17 c-26 9 -50 17
-54 17 -3 0 -6 -31 -6 -69 0 -66 1 -71 27 -83 18 -8 29 -22 31 -38 10 -85 26
-134 59 -177 l35 -46 -45 -146 c-25 -80 -55 -180 -67 -221 -11 -41 -25 -83
-30 -92 -15 -27 -13 -521 2 -516 6 2 30 89 53 194 63 282 182 703 206 728 5 5
53 22 106 38 155 44 213 98 213 200 0 61 -63 186 -124 245 -63 61 -127 75
-217 47z"/>
<path d="M12719 7317 c-37 -35 -76 -82 -88 -105 -25 -48 -28 -120 -7 -161 19
-36 85 -95 136 -121 l40 -20 0 235 c0 129 -3 235 -7 235 -5 0 -38 -29 -74 -63z"/>
<path d="M0 5655 c0 -272 -7 -261 96 -153 71 74 79 88 88 150 13 85 -28 147
-141 214 l-43 25 0 -236z"/>
<path d="M12775 5208 c-2 -7 -14 -60 -25 -118 -45 -223 -180 -712 -215 -780
-11 -21 -28 -29 -106 -49 -110 -27 -133 -38 -176 -83 -42 -43 -59 -109 -44
-164 18 -66 114 -207 159 -232 88 -49 192 -34 277 40 l47 42 48 -17 c26 -9 50
-17 54 -17 3 0 6 31 6 69 0 66 -1 71 -27 83 -18 8 -29 22 -31 38 -10 85 -26
134 -59 177 l-35 46 55 181 c31 100 61 201 68 226 7 25 16 49 21 54 12 15 10
516 -2 516 -6 0 -13 -6 -15 -12z"/>
<path d="M40 2911 l-35 -6 -3 -350 -2 -350 62 -25 c127 -51 262 -25 350 67 61
63 82 122 83 233 0 109 -22 183 -80 262 -88 120 -249 193 -375 169z"/>
<path d="M4009 586 c-100 -27 -228 -131 -248 -201 -6 -22 -11 -52 -11 -66 0
-47 31 -117 73 -165 l41 -46 -17 -48 c-9 -26 -17 -50 -17 -54 0 -3 31 -6 69
-6 66 0 71 1 83 28 8 17 22 28 38 30 85 10 134 26 177 59 l46 35 146 -45 c80
-25 180 -55 221 -67 41 -11 83 -25 92 -30 28 -16 521 -13 516 2 -3 7 -77 28
-174 49 -284 61 -725 186 -750 212 -6 7 -22 53 -34 102 -12 50 -28 101 -35
115 -22 41 -78 88 -120 99 -47 13 -38 13 -96 -3z"/>
<path d="M10210 487 c-207 -59 -346 -247 -323 -437 l6 -50 351 0 351 0 17 43
c75 184 16 356 -147 428 -61 27 -188 35 -255 16z"/>
<path d="M7055 176 c-38 -17 -84 -67 -119 -128 l-27 -48 236 0 c129 0 235 3
235 8 0 16 -139 149 -173 165 -42 20 -110 21 -152 3z"/>
</g>
</svg>
